<svg width="237" height="40" viewBox="0 0 237 40" fill="none" xmlns="http://www.w3.org/2000/svg">
<g clip-path="url(#clip0_51_178)">
<path fill-rule="evenodd" clip-rule="evenodd" d="M23.329 20.6758L18.091 29.6665H28.5669L23.329 20.6758Z" fill="#D21224"/>
<path fill-rule="evenodd" clip-rule="evenodd" d="M34.5924 39.999L29.7 31.6104H4.89241L0 39.999H34.5924Z" fill="#D21224"/>
<path fill-rule="evenodd" clip-rule="evenodd" d="M46.6576 40.0011L29.3545 10.3467L24.4621 18.7353L36.8589 40.0011H46.6576Z" fill="#D21224"/>
<path fill-rule="evenodd" clip-rule="evenodd" d="M23.3288 0L6.0257 29.6681H15.8243L28.2212 8.40233L23.3288 0Z" fill="#D21224"/>
<path fill-rule="evenodd" clip-rule="evenodd" d="M126.677 33.8831L114.072 19.5006L126.013 6.18555H119.297L108.365 18.8027V6.18555H102.947V33.8831H108.365V20.1438L119.946 33.8831H126.677Z" fill="#EDEDED"/>
<path fill-rule="evenodd" clip-rule="evenodd" d="M152.84 33.8831L140.222 19.5006L152.163 6.18555H145.46L134.528 18.8027V6.18555H129.097V33.8831H134.528V20.1438L146.096 33.8831H152.84Z" fill="#EDEDED"/>
<path fill-rule="evenodd" clip-rule="evenodd" d="M79.3696 33.8831H98.5799V29.2851H84.7871V22.087H96.6727V17.489H84.7871V10.7836H98.5799V6.18555H79.3696V33.8831Z" fill="#EDEDED"/>
<path fill-rule="evenodd" clip-rule="evenodd" d="M66.2978 10.7836H75.3778V6.18555H51.7864V10.7836H60.8664V33.8831H66.2978V10.7836Z" fill="#EDEDED"/>
<path fill-rule="evenodd" clip-rule="evenodd" d="M188.15 19.8012C188.15 14.4232 192.034 10.2767 197.41 10.2767C202.786 10.2767 206.669 14.4232 206.669 19.8012C206.669 25.1792 202.8 29.7225 197.41 29.7225C192.02 29.7225 188.15 25.4256 188.15 19.8012ZM182.898 19.8012C182.898 27.9709 188.896 34.3342 197.41 34.3342C205.923 34.3342 211.921 27.9709 211.921 19.8012C211.921 11.6315 205.923 5.66504 197.41 5.66504C188.896 5.66504 182.898 11.8778 182.898 19.8012Z" fill="#EDEDED"/>
<path fill-rule="evenodd" clip-rule="evenodd" d="M230.993 6.18555L223.973 19.9933L216.717 6.18555H211.189L221.319 25.2208L216.897 33.8831H222.162L236.522 6.18555H230.993Z" fill="#EDEDED"/>
<path fill-rule="evenodd" clip-rule="evenodd" d="M173.748 6.18555V17.489H160.868V6.18555H155.436V33.8831H160.868V22.087H173.748V33.8831H179.18V6.18555H173.748Z" fill="#EDEDED"/>
</g>
<defs>
<clipPath id="clip0_51_178">
<rect width="236.522" height="40" fill="white"/>
</clipPath>
</defs>
</svg>
