<svg width="167" height="59" viewBox="0 0 167 59" fill="none" xmlns="http://www.w3.org/2000/svg">
<path d="M41.0664 20.2665C39.6926 18.2351 37.8344 16.5529 35.6507 15.3943C33.5542 14.2755 31.1561 13.6486 28.607 13.6486C24.4539 13.6486 20.7057 15.3308 17.9819 18.0447C15.2661 20.7585 13.5826 24.5118 13.5826 28.6619C13.5826 32.812 15.2661 36.5574 17.9819 39.2791C20.7057 42.0009 24.4618 43.6831 28.607 43.6831V47.4444C23.4215 47.4444 18.7205 45.3416 15.3217 41.9453C11.923 38.5412 9.8186 33.8515 9.8186 28.6698C9.8186 23.4882 11.923 18.7906 15.3217 15.3943C18.7205 11.9981 23.4136 9.89526 28.607 9.89526C31.7913 9.89526 34.7851 10.6808 37.4136 12.0854C40.1373 13.5296 42.4641 15.6324 44.1872 18.1716L41.0744 20.2744" fill="#7BF2DA"/>
<path d="M48.8966 50.6818C47.2449 52.126 45.4026 53.3956 43.4332 54.451C41.4797 55.4984 39.415 56.3316 37.271 56.9109C29.4173 59.0534 21.4287 57.7996 14.8694 54.0542C8.3181 50.3009 3.18822 44.056 1.05209 36.2081C-1.09992 28.3444 0.146816 20.3695 3.90291 13.8151C7.65106 7.2686 13.9006 2.14249 21.7622 0L22.5325 2.82491L23.4616 5.64189L23.3107 5.69744C17.0294 7.41143 12.0265 11.506 9.02485 16.7432C6.02315 21.9804 5.02259 28.3682 6.73784 34.6528C8.4531 40.9374 12.5586 45.9286 17.7997 48.9281C23.0487 51.9276 29.4332 52.9195 35.7225 51.2055C37.4933 50.7294 39.1451 50.0708 40.6697 49.2614C42.242 48.4203 43.7032 47.4046 45.0373 46.2461L48.9125 50.6739" fill="#7BF2DA"/>
<path d="M95.6432 46.7818H97.1574L98.39 49.4933L99.5697 46.7818H101.031L98.3459 52.6539H96.8845L97.7385 50.9636L95.6432 46.7818Z" fill="#7BF2DA"/>
<path d="M104.949 52.6539V50.3121C104.609 50.3708 104.277 50.4001 103.955 50.4001C103.104 50.4001 102.496 50.227 102.132 49.8807C101.833 49.5931 101.683 49.1617 101.683 48.5866V46.7818H103.039V48.3136C103.039 48.6541 103.124 48.8918 103.294 49.0267C103.453 49.1559 103.737 49.2204 104.148 49.2204C104.43 49.2204 104.697 49.197 104.949 49.15V46.7818H106.305V52.6539H104.949Z" fill="#7BF2DA"/>
<path d="M111.09 46.7818V47.9263H109.127V49.062H110.993V50.2064H109.127V51.5094H111.09V52.6539H107.771V46.7818H111.09Z" fill="#7BF2DA"/>
<path d="M112.366 52.6539V46.7818H115.993V47.9263H113.722V49.0972H114.479C115.212 49.0972 115.764 49.2791 116.134 49.643C116.451 49.9599 116.609 50.3678 116.609 50.8667C116.609 51.3891 116.451 51.8087 116.134 52.1257C115.782 52.4778 115.192 52.6539 114.364 52.6539H112.366ZM113.722 51.5622H114.259C114.587 51.5622 114.831 51.5006 114.989 51.3773C115.142 51.2424 115.218 51.0692 115.218 50.8579C115.218 50.6173 115.13 50.4353 114.954 50.3121C114.808 50.2064 114.576 50.1536 114.259 50.1536H113.722V51.5622Z" fill="#7BF2DA"/>
<path d="M119.151 46.7818V49.0179H121.493V46.7818H122.848V52.6539H121.493V50.1624H119.151V52.6539H117.795V46.7818H119.151Z" fill="#7BF2DA"/>
<path d="M129.123 46.7818H130.479V52.6539H129.123V46.7818ZM124.307 52.6539V46.7818H125.663V49.0708H126.473C127.201 49.0708 127.738 49.2351 128.084 49.5638C128.413 49.8748 128.577 50.3092 128.577 50.8667C128.577 51.4243 128.419 51.8557 128.102 52.1609C127.756 52.4896 127.198 52.6539 126.429 52.6539H124.307ZM125.663 50.1624V51.5622H126.262C126.585 51.5622 126.819 51.5094 126.966 51.4038C127.136 51.2922 127.221 51.1103 127.221 50.8579C127.221 50.5879 127.139 50.4031 126.975 50.3033C126.846 50.2094 126.611 50.1624 126.271 50.1624H125.663Z" fill="#7BF2DA"/>
<path d="M131.937 46.7818H133.293V50.6202L136.014 46.7114H137.211V52.6539H135.855V48.8067L133.135 52.7243H131.937V46.7818ZM135.388 44.845L136.322 45.2411C136.181 45.5757 135.958 45.8398 135.653 46.0335C135.377 46.1978 135.016 46.28 134.57 46.28C134.13 46.28 133.772 46.1978 133.496 46.0335C133.19 45.8398 132.967 45.5757 132.827 45.2411L133.76 44.845C133.836 45.0328 133.933 45.1736 134.05 45.2675C134.185 45.3673 134.364 45.4172 134.587 45.4172C134.799 45.4172 134.972 45.3673 135.107 45.2675C135.242 45.1619 135.336 45.021 135.388 44.845Z" fill="#7BF2DA"/>
<path d="M140.904 52.6539V46.7818H142.26V51.5094H144.434V46.7818H145.79V51.5094H146.583V53.9744H145.368V52.6539H140.904Z" fill="#7BF2DA"/>
<path d="M150.804 46.7818V47.9263H148.841V49.062H150.707V50.2064H148.841V51.5094H150.804V52.6539H147.485V46.7818H150.804Z" fill="#7BF2DA"/>
<path d="M153.436 46.7818V49.0179H155.778V46.7818H157.134V52.6539H155.778V50.1624H153.436V52.6539H152.08V46.7818H153.436Z" fill="#7BF2DA"/>
<path d="M161.929 47.9263H160.653V52.6539H159.297V47.9263H158.021V46.7818H161.929V47.9263Z" fill="#7BF2DA"/>
<path d="M162.818 46.7818H164.887C165.55 46.7818 166.064 46.9432 166.428 47.266C166.809 47.6005 167 48.0759 167 48.6922C167 49.2674 166.833 49.7281 166.498 50.0744C166.158 50.4207 165.659 50.5938 165.002 50.5938H164.174V52.6539H162.818V46.7818ZM164.174 47.8911V49.4845H164.658C164.993 49.4845 165.236 49.4112 165.389 49.2644C165.536 49.1177 165.609 48.924 165.609 48.6834C165.609 48.4369 165.536 48.2461 165.389 48.1112C165.236 47.9644 164.984 47.8911 164.632 47.8911H164.174Z" fill="#7BF2DA"/>
<path d="M93.3735 29.7649H87.0922V32.7564H93.3735V29.7649Z" fill="#7BF2DA"/>
<path d="M26.2643 38.1441C25.1367 38.1441 24.3823 37.6918 24.0091 36.803L19.1174 24.567H23.8026L26.8996 32.4308L31.3704 24.567H35.8491L28.7896 36.803C28.2416 37.6918 27.4078 38.1441 26.2723 38.1441H26.2643ZM35.4759 37.9616H39.4781L40.8202 24.567H36.9053L35.4838 37.9616H35.4759ZM40.7646 37.9378H49.8967C53.0652 37.9616 54.8122 36.803 55.1854 34.4463C55.4157 32.8037 55.0266 31.669 54.0261 31.0659C54.7963 30.3676 55.2093 29.3519 55.2569 28.0347C55.2251 25.9319 53.9228 24.7654 51.3499 24.5591H42.0828L40.7646 37.9378ZM45.3386 32.9466L49.9047 32.9862C50.7464 33.0735 51.1196 33.375 51.0323 33.8908C50.9291 34.4066 50.5241 34.6844 49.7935 34.7082H45.1639L45.3386 32.9386V32.9466ZM45.7992 27.9315H50.4367C51.2308 28.0506 51.5802 28.368 51.4929 28.8917C51.4055 29.4075 50.9926 29.6773 50.2541 29.7011H45.6245L45.7992 27.9315ZM55.5825 37.9378H59.6006L60.0136 33.7559H63.5632L65.3896 37.9774H69.8525L67.9784 33.5734C69.4316 32.4704 70.178 30.9866 70.2177 29.098C70.3527 26.5349 69.0266 25.0114 66.2075 24.5432H56.9166L55.5745 37.9298L55.5825 37.9378ZM60.6727 27.8919H65.6358C66.4458 28.0109 66.7714 28.4235 66.6681 29.1377C66.5569 29.8518 66.1281 30.2169 65.3658 30.2248H60.4344L60.6727 27.8919ZM81.0175 38.1044H74.6647C71.8456 38.1203 70.6624 35.8429 71.1389 31.304C71.5836 26.7016 73.2909 24.4004 76.3005 24.3687L81.5019 24.3845C84.6148 24.321 85.925 26.5429 85.4248 31.0342C85.2183 35.6842 83.7492 38.0489 81.0175 38.1044ZM75.3953 28.971C75.1729 29.3123 74.9903 30.082 74.8553 31.2802C74.7362 32.4784 74.7282 33.2005 74.8473 33.4465C75.03 34.0575 75.4191 34.4066 75.9988 34.5177H79.7072C80.3266 34.4542 80.7793 34.1606 81.0254 33.6528C81.3351 33.2957 81.5495 32.4387 81.6687 31.0739C81.7798 29.7011 81.6925 28.8282 81.3828 28.4553C81.089 28.0664 80.6363 27.8363 80.0011 27.7808H77.1423C76.3244 27.8442 75.7447 28.241 75.4032 28.979L75.3953 28.971ZM96.1927 24.5274L95.3431 32.9307C94.9937 36.1285 96.2801 37.8029 99.1944 37.9536H108.422L108.771 34.1844H100.624C99.798 34.0892 99.385 33.6448 99.393 32.8434L100.235 24.5274H96.2007H96.1927ZM109.311 37.8901L110.224 28.7806C110.653 26.035 112.305 24.6067 115.196 24.4877H119.73C122.358 24.6702 123.597 26.0906 123.446 28.7489L122.517 37.9219H118.96L119.373 33.8512L113.417 33.8115L113.012 37.8981H109.319L109.311 37.8901ZM115.331 27.6538C114.378 27.6697 113.909 28.1458 113.917 29.0663L113.766 30.4946H119.706L119.825 29.3757C120.024 28.3362 119.722 27.757 118.936 27.6379H115.331V27.6538ZM137.144 28.0506H129.72C129.227 28.0506 128.83 28.0744 128.568 28.122C128.298 28.1617 128.052 28.36 127.846 28.7092C127.901 29.1377 128.076 29.3837 128.37 29.4392C128.64 29.4948 129.084 29.5265 129.664 29.5265H133.293C134.746 29.6059 135.763 30.0264 136.342 30.7803C136.922 31.542 137.152 32.5974 137.017 33.9543C136.795 35.3112 136.319 36.319 135.572 36.9697C134.834 37.6124 133.611 37.9536 131.903 37.9774H123.804L124.153 34.5415H131.848C132.507 34.5415 133.015 34.5256 133.365 34.478C133.714 34.4304 133.952 34.1686 134.079 33.7083C134.04 33.3433 133.857 33.1132 133.555 33.0418C133.237 32.9704 132.713 32.9307 131.991 32.9307H128.489C126.948 32.9307 125.852 32.5577 125.209 31.8039C124.574 31.0501 124.32 30.0026 124.447 28.6774C124.693 27.2809 125.193 26.2652 125.956 25.6303C126.718 25.0035 127.933 24.6464 129.569 24.575H137.478L137.129 28.0664L137.144 28.0506ZM150.89 37.9378H141.448C138.733 37.7791 137.597 35.5493 138.018 31.2484C138.431 26.9476 140.106 24.7178 143.037 24.575H152.216L151.891 27.8284H143.751C143.061 27.8046 142.648 27.9871 142.513 28.36L142.187 29.5027H151.74L151.391 32.7244L141.917 32.6926L141.941 33.4465C141.957 34.0813 142.187 34.4304 142.624 34.478H151.24L150.898 37.9378H150.89ZM152.216 37.9378H156.243L156.648 33.7559H160.197L162.024 37.9774H166.486L164.612 33.5734C166.066 32.4704 166.804 30.9866 166.852 29.098C166.987 26.5349 165.653 25.0114 162.842 24.5432H153.559L152.209 37.9298L152.216 37.9378ZM157.307 27.8919H162.278C163.072 28.0109 163.421 28.4235 163.302 29.1377C163.199 29.8518 162.762 30.2169 162.008 30.2248H157.076L157.307 27.8919Z" fill="#7BF2DA"/>
</svg>
