<svg width="24" height="25" viewBox="0 0 24 25" fill="none" xmlns="http://www.w3.org/2000/svg">
<g clip-path="url(#clip0_40_91)">
<path d="M20.5328 7.82002C19.9917 7.82002 19.5307 8.28002 19.5307 8.82002V20.71C19.5307 21.68 18.719 22.49 17.747 22.49H3.78789C2.81587 22.49 2.00418 21.68 2.00418 20.71V6.80002C2.00418 5.83002 2.81587 5.02002 3.78789 5.02002H15.4622C16.0033 5.02002 16.4643 4.56002 16.4643 4.02002C16.4643 3.48002 16.0033 3.02002 15.4622 3.02002H3.78789C1.70355 3.02002 0 4.72002 0 6.80002V20.72C0 22.8 1.70355 24.5 3.78789 24.5H17.737C19.8213 24.5 21.5248 22.8 21.5248 20.72V8.83002C21.5248 8.29002 21.0939 7.83002 20.5228 7.83002L20.5328 7.82002Z" fill="#1E1E1E"/>
<path d="M17.0656 0.5C16.5244 0.5 16.0635 0.96 16.0635 1.5C16.0635 2.04 16.5244 2.5 17.0656 2.5H20.4827L11.1432 11.82C10.7624 12.2 10.7624 12.85 11.1432 13.23C11.3336 13.42 11.6042 13.53 11.8447 13.53C12.0852 13.53 12.3557 13.42 12.5461 13.23L21.9958 3.8V7.21C21.9958 7.75 22.4568 8.21 22.9979 8.21C23.539 8.21 24 7.75 24 7.21V0.5H17.0656Z" fill="#1E1E1E"/>
<path d="M4.17871 15.51V20.85H5.56159V19.08H6.4334C7.00459 19.08 7.44551 18.92 7.76618 18.62C8.08685 18.31 8.23716 17.87 8.23716 17.29C8.23716 16.75 8.06681 16.31 7.73612 15.99C7.40543 15.67 6.95449 15.51 6.3833 15.51H4.16869H4.17871ZM6.79416 17.3C6.79416 17.52 6.73403 17.69 6.61378 17.79C6.49353 17.9 6.29311 17.96 6.03257 17.96H5.57161V16.63H6.04259C6.31315 16.63 6.51357 16.69 6.63382 16.82C6.74405 16.93 6.79416 17.09 6.79416 17.3Z" fill="#1E1E1E"/>
<path d="M10.9228 20.85C11.3537 20.85 11.7445 20.77 12.0952 20.62C12.4459 20.47 12.7466 20.27 12.977 20.04C13.438 19.58 13.6785 18.96 13.6785 18.19C13.6785 17.37 13.428 16.72 12.9369 16.25C12.4259 15.76 11.7244 15.51 10.8125 15.51H8.98872V20.85H10.9328H10.9228ZM10.3716 16.69H10.7123C11.2134 16.69 11.5741 16.8 11.8146 17.03C12.0952 17.29 12.2355 17.68 12.2355 18.2C12.2355 18.67 12.0952 19.03 11.8246 19.3C11.5641 19.56 11.1733 19.68 10.6522 19.68H10.3716V16.7V16.69Z" fill="#1E1E1E"/>
<path d="M17.6167 16.69V15.51H14.5603V20.85H15.9432V18.75H17.4664V17.57H15.9432V16.69H17.6167Z" fill="#1E1E1E"/>
</g>
<defs>
<clipPath id="clip0_40_91">
<rect width="24" height="24" fill="white" transform="translate(0 0.5)"/>
</clipPath>
</defs>
</svg>
