<svg width="614" height="333" viewBox="0 0 614 333" fill="none" xmlns="http://www.w3.org/2000/svg">
<path d="M3.48 15H16.728V63H3.48V15ZM41.24 15H54.552V63H41.24V15ZM10.904 32.728H46.744V44.504H10.904V32.728ZM72.8865 53.784V43.096H105.975V53.784H72.8865ZM98.4225 15L120.247 63H106.103L87.7985 20.632H91.6385L73.2705 63H59.1265L80.9505 15H98.4225ZM191.73 42.904C191.26 47.128 189.81 50.84 187.378 54.04C184.946 57.1973 181.746 59.6507 177.778 61.4C173.852 63.1493 169.33 64.024 164.21 64.024C158.62 64.024 153.735 62.9787 149.554 60.888C145.372 58.7973 142.108 55.8747 139.762 52.12C137.458 48.3653 136.306 43.992 136.306 39C136.306 34.008 137.458 29.6347 139.762 25.88C142.108 22.1253 145.372 19.2027 149.554 17.112C153.735 15.0213 158.62 13.976 164.21 13.976C169.33 13.976 173.852 14.8507 177.778 16.6C181.746 18.3493 184.946 20.824 187.378 24.024C189.81 27.1813 191.26 30.872 191.73 35.096H178.418C177.991 33.048 177.159 31.32 175.922 29.912C174.684 28.4613 173.063 27.352 171.058 26.584C169.095 25.816 166.812 25.432 164.21 25.432C161.223 25.432 158.642 25.9867 156.466 27.096C154.29 28.1627 152.626 29.72 151.474 31.768C150.322 33.7733 149.746 36.184 149.746 39C149.746 41.816 150.322 44.248 151.474 46.296C152.626 48.3013 154.29 49.8587 156.466 50.968C158.642 52.0347 161.223 52.568 164.21 52.568C166.812 52.568 169.095 52.2053 171.058 51.48C173.063 50.7547 174.684 49.6667 175.922 48.216C177.159 46.7653 177.991 44.9947 178.418 42.904H191.73ZM204.949 53.784V43.096H238.037V53.784H204.949ZM230.485 15L252.309 63H238.165L219.861 20.632H223.701L205.333 63H191.189L213.013 15H230.485ZM256.855 63V15H269.911V56.024L266.263 55.192L293.463 15H310.807V63H297.687V21.208L301.399 22.04L273.687 63H256.855ZM267.223 0.407997H277.655C278.167 1.77333 278.914 2.81866 279.895 3.544C280.919 4.22666 282.178 4.568 283.671 4.568C285.164 4.568 286.402 4.22666 287.383 3.544C288.407 2.81866 289.175 1.77333 289.687 0.407997H300.119C299.18 4.46133 297.239 7.40533 294.295 9.24C291.394 11.032 287.852 11.928 283.671 11.928C279.532 11.928 275.991 11.032 273.047 9.24C270.103 7.40533 268.162 4.46133 267.223 0.407997ZM334.833 20.824H348.145V63H334.833V20.824ZM316.529 15H366.449V26.776H316.529V15ZM413.192 34.2V43.8H378.056V34.2H413.192ZM387.08 39L383.944 58.264L378.568 52.248H415.304V63H370.696L374.344 39L370.696 15H414.984V25.752H378.568L383.944 19.736L387.08 39ZM35.992 106.512L37.08 104.016C40.792 104.101 43.8427 104.677 46.232 105.744C48.664 106.768 50.4773 108.219 51.672 110.096C52.8667 111.931 53.464 114.064 53.464 116.496C53.464 119.099 52.8667 121.424 51.672 123.472C50.4773 125.477 48.6853 127.077 46.296 128.272C43.9493 129.424 41.0053 130 37.464 130H2.008L5.72 105.36L2.008 82H36.184C40.6213 82 44.0773 83.0453 46.552 85.136C49.0267 87.184 50.264 90.0427 50.264 93.712C50.264 95.7173 49.7947 97.6373 48.856 99.472C47.9173 101.307 46.4027 102.864 44.312 104.144C42.264 105.381 39.4907 106.171 35.992 106.512ZM15.128 126.928L10.008 120.72H33.88C35.8 120.72 37.2933 120.251 38.36 119.312C39.4267 118.373 39.96 117.072 39.96 115.408C39.96 113.744 39.384 112.421 38.232 111.44C37.08 110.416 35.3733 109.904 33.112 109.904H13.4V100.816H31.32C32.856 100.816 34.136 100.368 35.16 99.472C36.2267 98.5333 36.76 97.2747 36.76 95.696C36.76 94.416 36.312 93.3707 35.416 92.56C34.52 91.7067 33.24 91.28 31.576 91.28H10.072L15.128 85.072L18.392 105.36L15.128 126.928ZM86.924 82C90.9347 82 94.3907 82.6827 97.292 84.048C100.236 85.4133 102.476 87.3547 104.012 89.872C105.548 92.3467 106.316 95.248 106.316 98.576C106.316 101.861 105.548 104.763 104.012 107.28C102.476 109.755 100.236 111.675 97.292 113.04C94.3907 114.405 90.9347 115.088 86.924 115.088H66.124V104.464H86.092C88.2253 104.464 89.8893 103.952 91.084 102.928C92.2787 101.861 92.876 100.411 92.876 98.576C92.876 96.6987 92.2787 95.248 91.084 94.224C89.8893 93.1573 88.2253 92.624 86.092 92.624H67.276L73.228 86.48V130H59.98V82H86.924ZM152.942 101.2V110.8H117.806V101.2H152.942ZM126.83 106L123.694 125.264L118.318 119.248H155.054V130H110.446L114.094 106L110.446 82H154.734V92.752H118.318L123.694 86.736L126.83 106ZM232.874 82V130H220.266V86.736L223.082 87.056L204.522 130H191.082L172.458 87.184L175.338 86.864V130H162.73V82H183.21L200.426 123.216H195.306L212.394 82H232.874ZM282.879 101.2V110.8H247.743V101.2H282.879ZM256.767 106L253.631 125.264L248.255 119.248H284.991V130H240.383L244.031 106L240.383 82H284.671V92.752H248.255L253.631 86.736L256.767 106ZM292.668 82H305.916V130H292.668V82ZM330.428 82H343.74V130H330.428V82ZM300.092 99.728H335.932V111.504H300.092V99.728ZM352.73 82H365.978V130H352.73V82ZM390.49 82H403.802V130H390.49V82ZM360.154 99.728H395.994V111.504H360.154V99.728ZM439.161 131.024C433.486 131.024 428.494 129.979 424.185 127.888C419.918 125.797 416.59 122.875 414.201 119.12C411.854 115.365 410.681 110.992 410.681 106C410.681 101.008 411.854 96.6347 414.201 92.88C416.59 89.1253 419.918 86.2027 424.185 84.112C428.494 82.0213 433.486 80.976 439.161 80.976C444.878 80.976 449.87 82.0213 454.137 84.112C458.403 86.2027 461.731 89.1253 464.121 92.88C466.51 96.6347 467.705 101.008 467.705 106C467.705 110.992 466.51 115.365 464.121 119.12C461.731 122.875 458.403 125.797 454.137 127.888C449.87 129.979 444.878 131.024 439.161 131.024ZM439.161 119.184C442.275 119.184 444.963 118.651 447.225 117.584C449.486 116.517 451.214 115.003 452.409 113.04C453.646 111.077 454.265 108.731 454.265 106C454.265 103.269 453.646 100.923 452.409 98.96C451.214 96.9973 449.486 95.4827 447.225 94.416C444.963 93.3493 442.275 92.816 439.161 92.816C436.089 92.816 433.422 93.3493 431.161 94.416C428.899 95.4827 427.15 96.9973 425.913 98.96C424.675 100.923 424.057 103.269 424.057 106C424.057 108.731 424.675 111.077 425.913 113.04C427.15 115.003 428.899 116.517 431.161 117.584C433.422 118.651 436.089 119.184 439.161 119.184ZM35.992 173.512L37.08 171.016C40.792 171.101 43.8427 171.677 46.232 172.744C48.664 173.768 50.4773 175.219 51.672 177.096C52.8667 178.931 53.464 181.064 53.464 183.496C53.464 186.099 52.8667 188.424 51.672 190.472C50.4773 192.477 48.6853 194.077 46.296 195.272C43.9493 196.424 41.0053 197 37.464 197H2.008L5.72 172.36L2.008 149H36.184C40.6213 149 44.0773 150.045 46.552 152.136C49.0267 154.184 50.264 157.043 50.264 160.712C50.264 162.717 49.7947 164.637 48.856 166.472C47.9173 168.307 46.4027 169.864 44.312 171.144C42.264 172.381 39.4907 173.171 35.992 173.512ZM15.128 193.928L10.008 187.72H33.88C35.8 187.72 37.2933 187.251 38.36 186.312C39.4267 185.373 39.96 184.072 39.96 182.408C39.96 180.744 39.384 179.421 38.232 178.44C37.08 177.416 35.3733 176.904 33.112 176.904H13.4V167.816H31.32C32.856 167.816 34.136 167.368 35.16 166.472C36.2267 165.533 36.76 164.275 36.76 162.696C36.76 161.416 36.312 160.371 35.416 159.56C34.52 158.707 33.24 158.28 31.576 158.28H10.072L15.128 152.072L18.392 172.36L15.128 193.928ZM101.004 168.2V177.8H65.868V168.2H101.004ZM74.892 173L71.756 192.264L66.38 186.248H103.116V197H58.508L62.156 173L58.508 149H102.796V159.752H66.38L71.756 153.736L74.892 173ZM107.341 206.664V185.288H117.709L121.933 185.416H155.213L158.541 185.288H172.493V206.664H160.077V197H119.757V206.664H107.341ZM117.325 149H164.237V193.288H150.925V154.568L156.941 160.584H124.365L129.869 156.168C130.21 158.131 130.402 160.029 130.445 161.864C130.53 163.699 130.573 165.448 130.573 167.112C130.573 172.104 130.125 176.307 129.229 179.72C128.376 183.133 127.074 185.715 125.325 187.464C123.618 189.213 121.464 190.088 118.861 190.088L113.293 185.48C115 183.475 116.258 180.744 117.069 177.288C117.88 173.789 118.285 169.48 118.285 164.36C118.285 162.013 118.2 159.56 118.029 157C117.858 154.44 117.624 151.773 117.325 149ZM185.621 197L194.261 181.96H194.453L213.205 149H227.605L200.021 197H185.621ZM194.069 190.536L170.069 149H184.725L203.477 181.64L194.069 190.536ZM247.145 154.824H260.457V197H247.145V154.824ZM228.841 149H278.761V160.776H228.841V149ZM335.855 176.904C335.385 181.128 333.935 184.84 331.503 188.04C329.071 191.197 325.871 193.651 321.903 195.4C317.977 197.149 313.455 198.024 308.335 198.024C302.745 198.024 297.86 196.979 293.679 194.888C289.497 192.797 286.233 189.875 283.887 186.12C281.583 182.365 280.431 177.992 280.431 173C280.431 168.008 281.583 163.635 283.887 159.88C286.233 156.125 289.497 153.203 293.679 151.112C297.86 149.021 302.745 147.976 308.335 147.976C313.455 147.976 317.977 148.851 321.903 150.6C325.871 152.349 329.071 154.824 331.503 158.024C333.935 161.181 335.385 164.872 335.855 169.096H322.543C322.116 167.048 321.284 165.32 320.047 163.912C318.809 162.461 317.188 161.352 315.183 160.584C313.22 159.816 310.937 159.432 308.335 159.432C305.348 159.432 302.767 159.987 300.591 161.096C298.415 162.163 296.751 163.72 295.599 165.768C294.447 167.773 293.871 170.184 293.871 173C293.871 175.816 294.447 178.248 295.599 180.296C296.751 182.301 298.415 183.859 300.591 184.968C302.767 186.035 305.348 186.568 308.335 186.568C310.937 186.568 313.22 186.205 315.183 185.48C317.188 184.755 318.809 183.667 320.047 182.216C321.284 180.765 322.116 178.995 322.543 176.904H335.855ZM379.157 170.312V179.72H359.125L359.061 179.464C355.391 179.464 352.17 178.845 349.397 177.608C346.666 176.371 344.533 174.621 342.997 172.36C341.503 170.099 340.757 167.453 340.757 164.424C340.757 161.309 341.503 158.621 342.997 156.36C344.533 154.056 346.666 152.264 349.397 150.984C352.17 149.661 355.391 149 359.061 149H388.373V197H375.061V152.52L381.013 158.472H360.981C358.805 158.472 357.098 159.005 355.861 160.072C354.666 161.096 354.069 162.547 354.069 164.424C354.069 166.259 354.666 167.709 355.861 168.776C357.098 169.8 358.805 170.312 360.981 170.312H379.157ZM371.221 174.536L354.837 197H339.477L356.373 174.536H371.221ZM18.52 221.824H31.832V264H18.52V221.824ZM0.216 216H50.136V227.776H0.216V216ZM96.879 235.2V244.8H61.743V235.2H96.879ZM70.767 240L67.631 259.264L62.255 253.248H98.991V264H54.383L58.031 240L54.383 216H98.671V226.752H62.255L67.631 220.736L70.767 240ZM135.02 243.072V235.008L158.572 264H142.252L126.7 243.904H133.228L117.612 264H101.483L125.164 235.072V243.008L102.892 216H119.468L133.548 234.176H127.02L140.908 216H157.228L135.02 243.072ZM162.355 216H175.603V264H162.355V216ZM200.115 216H213.427V264H200.115V216ZM169.779 233.728H205.619V245.504H169.779V233.728ZM222.418 264V216H235.474V257.024L231.826 256.192L259.026 216H276.37V264H263.25V222.208L266.962 223.04L239.25 264H222.418ZM304.619 249.536C297.792 249.536 292.566 247.765 288.939 244.224C285.355 240.64 283.563 235.477 283.563 228.736V216H296.811V227.648C296.811 231.019 297.728 233.557 299.563 235.264C301.398 236.971 304.15 237.824 307.819 237.824C309.952 237.824 312.192 237.589 314.539 237.12C316.886 236.608 319.232 235.883 321.579 234.944L322.347 245.568C319.787 246.848 316.992 247.829 313.963 248.512C310.934 249.195 307.819 249.536 304.619 249.536ZM319.851 264V216H333.163V264H319.851ZM383.067 235.2V244.8H347.931V235.2H383.067ZM356.955 240L353.819 259.264L348.443 253.248H385.179V264H340.571L344.219 240L340.571 216H384.859V226.752H348.443L353.819 220.736L356.955 240ZM445.417 243.904C444.948 248.128 443.497 251.84 441.065 255.04C438.633 258.197 435.433 260.651 431.465 262.4C427.54 264.149 423.017 265.024 417.897 265.024C412.308 265.024 407.422 263.979 403.241 261.888C399.06 259.797 395.796 256.875 393.449 253.12C391.145 249.365 389.993 244.992 389.993 240C389.993 235.008 391.145 230.635 393.449 226.88C395.796 223.125 399.06 220.203 403.241 218.112C407.422 216.021 412.308 214.976 417.897 214.976C423.017 214.976 427.54 215.851 431.465 217.6C435.433 219.349 438.633 221.824 441.065 225.024C443.497 228.181 444.948 231.872 445.417 236.096H432.105C431.678 234.048 430.846 232.32 429.609 230.912C428.372 229.461 426.75 228.352 424.745 227.584C422.782 226.816 420.5 226.432 417.897 226.432C414.91 226.432 412.329 226.987 410.153 228.096C407.977 229.163 406.313 230.72 405.161 232.768C404.009 234.773 403.433 237.184 403.433 240C403.433 242.816 404.009 245.248 405.161 247.296C406.313 249.301 407.977 250.859 410.153 251.968C412.329 253.035 414.91 253.568 417.897 253.568C420.5 253.568 422.782 253.205 424.745 252.48C426.75 251.755 428.372 250.667 429.609 249.216C430.846 247.765 431.678 245.995 432.105 243.904H445.417ZM451.855 264V216H465.039V253.44L461.519 250.688L488.719 216H502.735L463.823 264H451.855ZM474.767 241.088L484.495 233.024L503.375 264H488.335L474.767 241.088ZM507.543 264V216H520.599V257.024L516.951 256.192L544.151 216H561.495V264H548.375V222.208L552.087 223.04L524.375 264H507.543ZM611.504 235.2V244.8H576.368V235.2H611.504ZM585.392 240L582.256 259.264L576.88 253.248H613.616V264H569.008L572.656 240L569.008 216H613.296V226.752H576.88L582.256 220.736L585.392 240ZM30.424 283C34.4347 283 37.8907 283.683 40.792 285.048C43.736 286.413 45.976 288.355 47.512 290.872C49.048 293.347 49.816 296.248 49.816 299.576C49.816 302.861 49.048 305.763 47.512 308.28C45.976 310.755 43.736 312.675 40.792 314.04C37.8907 315.405 34.4347 316.088 30.424 316.088H9.624V305.464H29.592C31.7253 305.464 33.3893 304.952 34.584 303.928C35.7787 302.861 36.376 301.411 36.376 299.576C36.376 297.699 35.7787 296.248 34.584 295.224C33.3893 294.157 31.7253 293.624 29.592 293.624H10.776L16.728 287.48V331H3.48V283H30.424ZM59.449 321.784V311.096H92.537V321.784H59.449ZM84.985 283L106.809 331H92.665L74.361 288.632H78.201L59.833 331H45.689L67.513 283H84.985ZM119.931 301.24H141.115C145.168 301.24 148.496 301.859 151.099 303.096C153.702 304.333 155.643 306.083 156.923 308.344C158.203 310.563 158.843 313.165 158.843 316.152C158.843 319.139 158.139 321.763 156.731 324.024C155.323 326.243 153.296 327.971 150.651 329.208C148.006 330.403 144.827 331 141.115 331H109.883L113.595 306.104L109.883 283H155.131V293.048H118.139L123.195 286.968L126.203 305.848L122.939 327.416L117.883 321.336H139.387C141.307 321.336 142.822 320.845 143.931 319.864C145.083 318.883 145.659 317.539 145.659 315.832C145.659 314.083 145.083 312.739 143.931 311.8C142.822 310.819 141.307 310.328 139.387 310.328H119.931V301.24ZM191.598 332.024C185.923 332.024 180.931 330.979 176.622 328.888C172.355 326.797 169.027 323.875 166.638 320.12C164.291 316.365 163.118 311.992 163.118 307C163.118 302.008 164.291 297.635 166.638 293.88C169.027 290.125 172.355 287.203 176.622 285.112C180.931 283.021 185.923 281.976 191.598 281.976C197.315 281.976 202.307 283.021 206.574 285.112C210.841 287.203 214.169 290.125 216.558 293.88C218.947 297.635 220.142 302.008 220.142 307C220.142 311.992 218.947 316.365 216.558 320.12C214.169 323.875 210.841 326.797 206.574 328.888C202.307 330.979 197.315 332.024 191.598 332.024ZM191.598 320.184C194.713 320.184 197.401 319.651 199.662 318.584C201.923 317.517 203.651 316.003 204.846 314.04C206.083 312.077 206.702 309.731 206.702 307C206.702 304.269 206.083 301.923 204.846 299.96C203.651 297.997 201.923 296.483 199.662 295.416C197.401 294.349 194.713 293.816 191.598 293.816C188.526 293.816 185.859 294.349 183.598 295.416C181.337 296.483 179.587 297.997 178.35 299.96C177.113 301.923 176.494 304.269 176.494 307C176.494 309.731 177.113 312.077 178.35 314.04C179.587 316.003 181.337 317.517 183.598 318.584C185.859 319.651 188.526 320.184 191.598 320.184ZM240.083 288.824H253.395V331H240.083V288.824ZM221.779 283H271.699V294.776H221.779V283ZM277.418 331V283H290.666V326.52L284.714 320.568H303.402C305.578 320.568 307.263 320.013 308.458 318.904C309.695 317.795 310.314 316.301 310.314 314.424C310.314 312.504 309.695 311.011 308.458 309.944C307.263 308.877 305.578 308.344 303.402 308.344H283.562V297.848H304.234C308.287 297.848 311.764 298.552 314.666 299.96C317.61 301.325 319.85 303.245 321.386 305.72C322.964 308.195 323.754 311.096 323.754 314.424C323.754 317.752 322.964 320.675 321.386 323.192C319.85 325.667 317.61 327.587 314.666 328.952C311.764 330.317 308.287 331 304.234 331H277.418ZM327.722 283H340.97V331H327.722V283Z" fill="#CCCCCC"/>
<path d="M3.48 15H16.728V63H3.48V15ZM41.24 15H54.552V63H41.24V15ZM10.904 32.728H46.744V44.504H10.904V32.728ZM72.8865 53.784V43.096H105.975V53.784H72.8865ZM98.4225 15L120.247 63H106.103L87.7985 20.632H91.6385L73.2705 63H59.1265L80.9505 15H98.4225ZM191.73 42.904C191.26 47.128 189.81 50.84 187.378 54.04C184.946 57.1973 181.746 59.6507 177.778 61.4C173.852 63.1493 169.33 64.024 164.21 64.024C158.62 64.024 153.735 62.9787 149.554 60.888C145.372 58.7973 142.108 55.8747 139.762 52.12C137.458 48.3653 136.306 43.992 136.306 39C136.306 34.008 137.458 29.6347 139.762 25.88C142.108 22.1253 145.372 19.2027 149.554 17.112C153.735 15.0213 158.62 13.976 164.21 13.976C169.33 13.976 173.852 14.8507 177.778 16.6C181.746 18.3493 184.946 20.824 187.378 24.024C189.81 27.1813 191.26 30.872 191.73 35.096H178.418C177.991 33.048 177.159 31.32 175.922 29.912C174.684 28.4613 173.063 27.352 171.058 26.584C169.095 25.816 166.812 25.432 164.21 25.432C161.223 25.432 158.642 25.9867 156.466 27.096C154.29 28.1627 152.626 29.72 151.474 31.768C150.322 33.7733 149.746 36.184 149.746 39C149.746 41.816 150.322 44.248 151.474 46.296C152.626 48.3013 154.29 49.8587 156.466 50.968C158.642 52.0347 161.223 52.568 164.21 52.568C166.812 52.568 169.095 52.2053 171.058 51.48C173.063 50.7547 174.684 49.6667 175.922 48.216C177.159 46.7653 177.991 44.9947 178.418 42.904H191.73ZM204.949 53.784V43.096H238.037V53.784H204.949ZM230.485 15L252.309 63H238.165L219.861 20.632H223.701L205.333 63H191.189L213.013 15H230.485ZM256.855 63V15H269.911V56.024L266.263 55.192L293.463 15H310.807V63H297.687V21.208L301.399 22.04L273.687 63H256.855ZM267.223 0.407997H277.655C278.167 1.77333 278.914 2.81866 279.895 3.544C280.919 4.22666 282.178 4.568 283.671 4.568C285.164 4.568 286.402 4.22666 287.383 3.544C288.407 2.81866 289.175 1.77333 289.687 0.407997H300.119C299.18 4.46133 297.239 7.40533 294.295 9.24C291.394 11.032 287.852 11.928 283.671 11.928C279.532 11.928 275.991 11.032 273.047 9.24C270.103 7.40533 268.162 4.46133 267.223 0.407997ZM334.833 20.824H348.145V63H334.833V20.824ZM316.529 15H366.449V26.776H316.529V15ZM413.192 34.2V43.8H378.056V34.2H413.192ZM387.08 39L383.944 58.264L378.568 52.248H415.304V63H370.696L374.344 39L370.696 15H414.984V25.752H378.568L383.944 19.736L387.08 39ZM35.992 106.512L37.08 104.016C40.792 104.101 43.8427 104.677 46.232 105.744C48.664 106.768 50.4773 108.219 51.672 110.096C52.8667 111.931 53.464 114.064 53.464 116.496C53.464 119.099 52.8667 121.424 51.672 123.472C50.4773 125.477 48.6853 127.077 46.296 128.272C43.9493 129.424 41.0053 130 37.464 130H2.008L5.72 105.36L2.008 82H36.184C40.6213 82 44.0773 83.0453 46.552 85.136C49.0267 87.184 50.264 90.0427 50.264 93.712C50.264 95.7173 49.7947 97.6373 48.856 99.472C47.9173 101.307 46.4027 102.864 44.312 104.144C42.264 105.381 39.4907 106.171 35.992 106.512ZM15.128 126.928L10.008 120.72H33.88C35.8 120.72 37.2933 120.251 38.36 119.312C39.4267 118.373 39.96 117.072 39.96 115.408C39.96 113.744 39.384 112.421 38.232 111.44C37.08 110.416 35.3733 109.904 33.112 109.904H13.4V100.816H31.32C32.856 100.816 34.136 100.368 35.16 99.472C36.2267 98.5333 36.76 97.2747 36.76 95.696C36.76 94.416 36.312 93.3707 35.416 92.56C34.52 91.7067 33.24 91.28 31.576 91.28H10.072L15.128 85.072L18.392 105.36L15.128 126.928ZM86.924 82C90.9347 82 94.3907 82.6827 97.292 84.048C100.236 85.4133 102.476 87.3547 104.012 89.872C105.548 92.3467 106.316 95.248 106.316 98.576C106.316 101.861 105.548 104.763 104.012 107.28C102.476 109.755 100.236 111.675 97.292 113.04C94.3907 114.405 90.9347 115.088 86.924 115.088H66.124V104.464H86.092C88.2253 104.464 89.8893 103.952 91.084 102.928C92.2787 101.861 92.876 100.411 92.876 98.576C92.876 96.6987 92.2787 95.248 91.084 94.224C89.8893 93.1573 88.2253 92.624 86.092 92.624H67.276L73.228 86.48V130H59.98V82H86.924ZM152.942 101.2V110.8H117.806V101.2H152.942ZM126.83 106L123.694 125.264L118.318 119.248H155.054V130H110.446L114.094 106L110.446 82H154.734V92.752H118.318L123.694 86.736L126.83 106ZM232.874 82V130H220.266V86.736L223.082 87.056L204.522 130H191.082L172.458 87.184L175.338 86.864V130H162.73V82H183.21L200.426 123.216H195.306L212.394 82H232.874ZM282.879 101.2V110.8H247.743V101.2H282.879ZM256.767 106L253.631 125.264L248.255 119.248H284.991V130H240.383L244.031 106L240.383 82H284.671V92.752H248.255L253.631 86.736L256.767 106ZM292.668 82H305.916V130H292.668V82ZM330.428 82H343.74V130H330.428V82ZM300.092 99.728H335.932V111.504H300.092V99.728ZM352.73 82H365.978V130H352.73V82ZM390.49 82H403.802V130H390.49V82ZM360.154 99.728H395.994V111.504H360.154V99.728ZM439.161 131.024C433.486 131.024 428.494 129.979 424.185 127.888C419.918 125.797 416.59 122.875 414.201 119.12C411.854 115.365 410.681 110.992 410.681 106C410.681 101.008 411.854 96.6347 414.201 92.88C416.59 89.1253 419.918 86.2027 424.185 84.112C428.494 82.0213 433.486 80.976 439.161 80.976C444.878 80.976 449.87 82.0213 454.137 84.112C458.403 86.2027 461.731 89.1253 464.121 92.88C466.51 96.6347 467.705 101.008 467.705 106C467.705 110.992 466.51 115.365 464.121 119.12C461.731 122.875 458.403 125.797 454.137 127.888C449.87 129.979 444.878 131.024 439.161 131.024ZM439.161 119.184C442.275 119.184 444.963 118.651 447.225 117.584C449.486 116.517 451.214 115.003 452.409 113.04C453.646 111.077 454.265 108.731 454.265 106C454.265 103.269 453.646 100.923 452.409 98.96C451.214 96.9973 449.486 95.4827 447.225 94.416C444.963 93.3493 442.275 92.816 439.161 92.816C436.089 92.816 433.422 93.3493 431.161 94.416C428.899 95.4827 427.15 96.9973 425.913 98.96C424.675 100.923 424.057 103.269 424.057 106C424.057 108.731 424.675 111.077 425.913 113.04C427.15 115.003 428.899 116.517 431.161 117.584C433.422 118.651 436.089 119.184 439.161 119.184ZM35.992 173.512L37.08 171.016C40.792 171.101 43.8427 171.677 46.232 172.744C48.664 173.768 50.4773 175.219 51.672 177.096C52.8667 178.931 53.464 181.064 53.464 183.496C53.464 186.099 52.8667 188.424 51.672 190.472C50.4773 192.477 48.6853 194.077 46.296 195.272C43.9493 196.424 41.0053 197 37.464 197H2.008L5.72 172.36L2.008 149H36.184C40.6213 149 44.0773 150.045 46.552 152.136C49.0267 154.184 50.264 157.043 50.264 160.712C50.264 162.717 49.7947 164.637 48.856 166.472C47.9173 168.307 46.4027 169.864 44.312 171.144C42.264 172.381 39.4907 173.171 35.992 173.512ZM15.128 193.928L10.008 187.72H33.88C35.8 187.72 37.2933 187.251 38.36 186.312C39.4267 185.373 39.96 184.072 39.96 182.408C39.96 180.744 39.384 179.421 38.232 178.44C37.08 177.416 35.3733 176.904 33.112 176.904H13.4V167.816H31.32C32.856 167.816 34.136 167.368 35.16 166.472C36.2267 165.533 36.76 164.275 36.76 162.696C36.76 161.416 36.312 160.371 35.416 159.56C34.52 158.707 33.24 158.28 31.576 158.28H10.072L15.128 152.072L18.392 172.36L15.128 193.928ZM101.004 168.2V177.8H65.868V168.2H101.004ZM74.892 173L71.756 192.264L66.38 186.248H103.116V197H58.508L62.156 173L58.508 149H102.796V159.752H66.38L71.756 153.736L74.892 173ZM107.341 206.664V185.288H117.709L121.933 185.416H155.213L158.541 185.288H172.493V206.664H160.077V197H119.757V206.664H107.341ZM117.325 149H164.237V193.288H150.925V154.568L156.941 160.584H124.365L129.869 156.168C130.21 158.131 130.402 160.029 130.445 161.864C130.53 163.699 130.573 165.448 130.573 167.112C130.573 172.104 130.125 176.307 129.229 179.72C128.376 183.133 127.074 185.715 125.325 187.464C123.618 189.213 121.464 190.088 118.861 190.088L113.293 185.48C115 183.475 116.258 180.744 117.069 177.288C117.88 173.789 118.285 169.48 118.285 164.36C118.285 162.013 118.2 159.56 118.029 157C117.858 154.44 117.624 151.773 117.325 149ZM185.621 197L194.261 181.96H194.453L213.205 149H227.605L200.021 197H185.621ZM194.069 190.536L170.069 149H184.725L203.477 181.64L194.069 190.536ZM247.145 154.824H260.457V197H247.145V154.824ZM228.841 149H278.761V160.776H228.841V149ZM335.855 176.904C335.385 181.128 333.935 184.84 331.503 188.04C329.071 191.197 325.871 193.651 321.903 195.4C317.977 197.149 313.455 198.024 308.335 198.024C302.745 198.024 297.86 196.979 293.679 194.888C289.497 192.797 286.233 189.875 283.887 186.12C281.583 182.365 280.431 177.992 280.431 173C280.431 168.008 281.583 163.635 283.887 159.88C286.233 156.125 289.497 153.203 293.679 151.112C297.86 149.021 302.745 147.976 308.335 147.976C313.455 147.976 317.977 148.851 321.903 150.6C325.871 152.349 329.071 154.824 331.503 158.024C333.935 161.181 335.385 164.872 335.855 169.096H322.543C322.116 167.048 321.284 165.32 320.047 163.912C318.809 162.461 317.188 161.352 315.183 160.584C313.22 159.816 310.937 159.432 308.335 159.432C305.348 159.432 302.767 159.987 300.591 161.096C298.415 162.163 296.751 163.72 295.599 165.768C294.447 167.773 293.871 170.184 293.871 173C293.871 175.816 294.447 178.248 295.599 180.296C296.751 182.301 298.415 183.859 300.591 184.968C302.767 186.035 305.348 186.568 308.335 186.568C310.937 186.568 313.22 186.205 315.183 185.48C317.188 184.755 318.809 183.667 320.047 182.216C321.284 180.765 322.116 178.995 322.543 176.904H335.855ZM379.157 170.312V179.72H359.125L359.061 179.464C355.391 179.464 352.17 178.845 349.397 177.608C346.666 176.371 344.533 174.621 342.997 172.36C341.503 170.099 340.757 167.453 340.757 164.424C340.757 161.309 341.503 158.621 342.997 156.36C344.533 154.056 346.666 152.264 349.397 150.984C352.17 149.661 355.391 149 359.061 149H388.373V197H375.061V152.52L381.013 158.472H360.981C358.805 158.472 357.098 159.005 355.861 160.072C354.666 161.096 354.069 162.547 354.069 164.424C354.069 166.259 354.666 167.709 355.861 168.776C357.098 169.8 358.805 170.312 360.981 170.312H379.157ZM371.221 174.536L354.837 197H339.477L356.373 174.536H371.221ZM18.52 221.824H31.832V264H18.52V221.824ZM0.216 216H50.136V227.776H0.216V216ZM96.879 235.2V244.8H61.743V235.2H96.879ZM70.767 240L67.631 259.264L62.255 253.248H98.991V264H54.383L58.031 240L54.383 216H98.671V226.752H62.255L67.631 220.736L70.767 240ZM135.02 243.072V235.008L158.572 264H142.252L126.7 243.904H133.228L117.612 264H101.483L125.164 235.072V243.008L102.892 216H119.468L133.548 234.176H127.02L140.908 216H157.228L135.02 243.072ZM162.355 216H175.603V264H162.355V216ZM200.115 216H213.427V264H200.115V216ZM169.779 233.728H205.619V245.504H169.779V233.728ZM222.418 264V216H235.474V257.024L231.826 256.192L259.026 216H276.37V264H263.25V222.208L266.962 223.04L239.25 264H222.418ZM304.619 249.536C297.792 249.536 292.566 247.765 288.939 244.224C285.355 240.64 283.563 235.477 283.563 228.736V216H296.811V227.648C296.811 231.019 297.728 233.557 299.563 235.264C301.398 236.971 304.15 237.824 307.819 237.824C309.952 237.824 312.192 237.589 314.539 237.12C316.886 236.608 319.232 235.883 321.579 234.944L322.347 245.568C319.787 246.848 316.992 247.829 313.963 248.512C310.934 249.195 307.819 249.536 304.619 249.536ZM319.851 264V216H333.163V264H319.851ZM383.067 235.2V244.8H347.931V235.2H383.067ZM356.955 240L353.819 259.264L348.443 253.248H385.179V264H340.571L344.219 240L340.571 216H384.859V226.752H348.443L353.819 220.736L356.955 240ZM445.417 243.904C444.948 248.128 443.497 251.84 441.065 255.04C438.633 258.197 435.433 260.651 431.465 262.4C427.54 264.149 423.017 265.024 417.897 265.024C412.308 265.024 407.422 263.979 403.241 261.888C399.06 259.797 395.796 256.875 393.449 253.12C391.145 249.365 389.993 244.992 389.993 240C389.993 235.008 391.145 230.635 393.449 226.88C395.796 223.125 399.06 220.203 403.241 218.112C407.422 216.021 412.308 214.976 417.897 214.976C423.017 214.976 427.54 215.851 431.465 217.6C435.433 219.349 438.633 221.824 441.065 225.024C443.497 228.181 444.948 231.872 445.417 236.096H432.105C431.678 234.048 430.846 232.32 429.609 230.912C428.372 229.461 426.75 228.352 424.745 227.584C422.782 226.816 420.5 226.432 417.897 226.432C414.91 226.432 412.329 226.987 410.153 228.096C407.977 229.163 406.313 230.72 405.161 232.768C404.009 234.773 403.433 237.184 403.433 240C403.433 242.816 404.009 245.248 405.161 247.296C406.313 249.301 407.977 250.859 410.153 251.968C412.329 253.035 414.91 253.568 417.897 253.568C420.5 253.568 422.782 253.205 424.745 252.48C426.75 251.755 428.372 250.667 429.609 249.216C430.846 247.765 431.678 245.995 432.105 243.904H445.417ZM451.855 264V216H465.039V253.44L461.519 250.688L488.719 216H502.735L463.823 264H451.855ZM474.767 241.088L484.495 233.024L503.375 264H488.335L474.767 241.088ZM507.543 264V216H520.599V257.024L516.951 256.192L544.151 216H561.495V264H548.375V222.208L552.087 223.04L524.375 264H507.543ZM611.504 235.2V244.8H576.368V235.2H611.504ZM585.392 240L582.256 259.264L576.88 253.248H613.616V264H569.008L572.656 240L569.008 216H613.296V226.752H576.88L582.256 220.736L585.392 240ZM30.424 283C34.4347 283 37.8907 283.683 40.792 285.048C43.736 286.413 45.976 288.355 47.512 290.872C49.048 293.347 49.816 296.248 49.816 299.576C49.816 302.861 49.048 305.763 47.512 308.28C45.976 310.755 43.736 312.675 40.792 314.04C37.8907 315.405 34.4347 316.088 30.424 316.088H9.624V305.464H29.592C31.7253 305.464 33.3893 304.952 34.584 303.928C35.7787 302.861 36.376 301.411 36.376 299.576C36.376 297.699 35.7787 296.248 34.584 295.224C33.3893 294.157 31.7253 293.624 29.592 293.624H10.776L16.728 287.48V331H3.48V283H30.424ZM59.449 321.784V311.096H92.537V321.784H59.449ZM84.985 283L106.809 331H92.665L74.361 288.632H78.201L59.833 331H45.689L67.513 283H84.985ZM119.931 301.24H141.115C145.168 301.24 148.496 301.859 151.099 303.096C153.702 304.333 155.643 306.083 156.923 308.344C158.203 310.563 158.843 313.165 158.843 316.152C158.843 319.139 158.139 321.763 156.731 324.024C155.323 326.243 153.296 327.971 150.651 329.208C148.006 330.403 144.827 331 141.115 331H109.883L113.595 306.104L109.883 283H155.131V293.048H118.139L123.195 286.968L126.203 305.848L122.939 327.416L117.883 321.336H139.387C141.307 321.336 142.822 320.845 143.931 319.864C145.083 318.883 145.659 317.539 145.659 315.832C145.659 314.083 145.083 312.739 143.931 311.8C142.822 310.819 141.307 310.328 139.387 310.328H119.931V301.24ZM191.598 332.024C185.923 332.024 180.931 330.979 176.622 328.888C172.355 326.797 169.027 323.875 166.638 320.12C164.291 316.365 163.118 311.992 163.118 307C163.118 302.008 164.291 297.635 166.638 293.88C169.027 290.125 172.355 287.203 176.622 285.112C180.931 283.021 185.923 281.976 191.598 281.976C197.315 281.976 202.307 283.021 206.574 285.112C210.841 287.203 214.169 290.125 216.558 293.88C218.947 297.635 220.142 302.008 220.142 307C220.142 311.992 218.947 316.365 216.558 320.12C214.169 323.875 210.841 326.797 206.574 328.888C202.307 330.979 197.315 332.024 191.598 332.024ZM191.598 320.184C194.713 320.184 197.401 319.651 199.662 318.584C201.923 317.517 203.651 316.003 204.846 314.04C206.083 312.077 206.702 309.731 206.702 307C206.702 304.269 206.083 301.923 204.846 299.96C203.651 297.997 201.923 296.483 199.662 295.416C197.401 294.349 194.713 293.816 191.598 293.816C188.526 293.816 185.859 294.349 183.598 295.416C181.337 296.483 179.587 297.997 178.35 299.96C177.113 301.923 176.494 304.269 176.494 307C176.494 309.731 177.113 312.077 178.35 314.04C179.587 316.003 181.337 317.517 183.598 318.584C185.859 319.651 188.526 320.184 191.598 320.184ZM240.083 288.824H253.395V331H240.083V288.824ZM221.779 283H271.699V294.776H221.779V283ZM277.418 331V283H290.666V326.52L284.714 320.568H303.402C305.578 320.568 307.263 320.013 308.458 318.904C309.695 317.795 310.314 316.301 310.314 314.424C310.314 312.504 309.695 311.011 308.458 309.944C307.263 308.877 305.578 308.344 303.402 308.344H283.562V297.848H304.234C308.287 297.848 311.764 298.552 314.666 299.96C317.61 301.325 319.85 303.245 321.386 305.72C322.964 308.195 323.754 311.096 323.754 314.424C323.754 317.752 322.964 320.675 321.386 323.192C319.85 325.667 317.61 327.587 314.666 328.952C311.764 330.317 308.287 331 304.234 331H277.418ZM327.722 283H340.97V331H327.722V283Z" fill="url(#paint0_linear_7570_847)"/>
<path d="M3.48 15H16.728V63H3.48V15ZM41.24 15H54.552V63H41.24V15ZM10.904 32.728H46.744V44.504H10.904V32.728ZM72.8865 53.784V43.096H105.975V53.784H72.8865ZM98.4225 15L120.247 63H106.103L87.7985 20.632H91.6385L73.2705 63H59.1265L80.9505 15H98.4225ZM191.73 42.904C191.26 47.128 189.81 50.84 187.378 54.04C184.946 57.1973 181.746 59.6507 177.778 61.4C173.852 63.1493 169.33 64.024 164.21 64.024C158.62 64.024 153.735 62.9787 149.554 60.888C145.372 58.7973 142.108 55.8747 139.762 52.12C137.458 48.3653 136.306 43.992 136.306 39C136.306 34.008 137.458 29.6347 139.762 25.88C142.108 22.1253 145.372 19.2027 149.554 17.112C153.735 15.0213 158.62 13.976 164.21 13.976C169.33 13.976 173.852 14.8507 177.778 16.6C181.746 18.3493 184.946 20.824 187.378 24.024C189.81 27.1813 191.26 30.872 191.73 35.096H178.418C177.991 33.048 177.159 31.32 175.922 29.912C174.684 28.4613 173.063 27.352 171.058 26.584C169.095 25.816 166.812 25.432 164.21 25.432C161.223 25.432 158.642 25.9867 156.466 27.096C154.29 28.1627 152.626 29.72 151.474 31.768C150.322 33.7733 149.746 36.184 149.746 39C149.746 41.816 150.322 44.248 151.474 46.296C152.626 48.3013 154.29 49.8587 156.466 50.968C158.642 52.0347 161.223 52.568 164.21 52.568C166.812 52.568 169.095 52.2053 171.058 51.48C173.063 50.7547 174.684 49.6667 175.922 48.216C177.159 46.7653 177.991 44.9947 178.418 42.904H191.73ZM204.949 53.784V43.096H238.037V53.784H204.949ZM230.485 15L252.309 63H238.165L219.861 20.632H223.701L205.333 63H191.189L213.013 15H230.485ZM256.855 63V15H269.911V56.024L266.263 55.192L293.463 15H310.807V63H297.687V21.208L301.399 22.04L273.687 63H256.855ZM267.223 0.407997H277.655C278.167 1.77333 278.914 2.81866 279.895 3.544C280.919 4.22666 282.178 4.568 283.671 4.568C285.164 4.568 286.402 4.22666 287.383 3.544C288.407 2.81866 289.175 1.77333 289.687 0.407997H300.119C299.18 4.46133 297.239 7.40533 294.295 9.24C291.394 11.032 287.852 11.928 283.671 11.928C279.532 11.928 275.991 11.032 273.047 9.24C270.103 7.40533 268.162 4.46133 267.223 0.407997ZM334.833 20.824H348.145V63H334.833V20.824ZM316.529 15H366.449V26.776H316.529V15ZM413.192 34.2V43.8H378.056V34.2H413.192ZM387.08 39L383.944 58.264L378.568 52.248H415.304V63H370.696L374.344 39L370.696 15H414.984V25.752H378.568L383.944 19.736L387.08 39ZM35.992 106.512L37.08 104.016C40.792 104.101 43.8427 104.677 46.232 105.744C48.664 106.768 50.4773 108.219 51.672 110.096C52.8667 111.931 53.464 114.064 53.464 116.496C53.464 119.099 52.8667 121.424 51.672 123.472C50.4773 125.477 48.6853 127.077 46.296 128.272C43.9493 129.424 41.0053 130 37.464 130H2.008L5.72 105.36L2.008 82H36.184C40.6213 82 44.0773 83.0453 46.552 85.136C49.0267 87.184 50.264 90.0427 50.264 93.712C50.264 95.7173 49.7947 97.6373 48.856 99.472C47.9173 101.307 46.4027 102.864 44.312 104.144C42.264 105.381 39.4907 106.171 35.992 106.512ZM15.128 126.928L10.008 120.72H33.88C35.8 120.72 37.2933 120.251 38.36 119.312C39.4267 118.373 39.96 117.072 39.96 115.408C39.96 113.744 39.384 112.421 38.232 111.44C37.08 110.416 35.3733 109.904 33.112 109.904H13.4V100.816H31.32C32.856 100.816 34.136 100.368 35.16 99.472C36.2267 98.5333 36.76 97.2747 36.76 95.696C36.76 94.416 36.312 93.3707 35.416 92.56C34.52 91.7067 33.24 91.28 31.576 91.28H10.072L15.128 85.072L18.392 105.36L15.128 126.928ZM86.924 82C90.9347 82 94.3907 82.6827 97.292 84.048C100.236 85.4133 102.476 87.3547 104.012 89.872C105.548 92.3467 106.316 95.248 106.316 98.576C106.316 101.861 105.548 104.763 104.012 107.28C102.476 109.755 100.236 111.675 97.292 113.04C94.3907 114.405 90.9347 115.088 86.924 115.088H66.124V104.464H86.092C88.2253 104.464 89.8893 103.952 91.084 102.928C92.2787 101.861 92.876 100.411 92.876 98.576C92.876 96.6987 92.2787 95.248 91.084 94.224C89.8893 93.1573 88.2253 92.624 86.092 92.624H67.276L73.228 86.48V130H59.98V82H86.924ZM152.942 101.2V110.8H117.806V101.2H152.942ZM126.83 106L123.694 125.264L118.318 119.248H155.054V130H110.446L114.094 106L110.446 82H154.734V92.752H118.318L123.694 86.736L126.83 106ZM232.874 82V130H220.266V86.736L223.082 87.056L204.522 130H191.082L172.458 87.184L175.338 86.864V130H162.73V82H183.21L200.426 123.216H195.306L212.394 82H232.874ZM282.879 101.2V110.8H247.743V101.2H282.879ZM256.767 106L253.631 125.264L248.255 119.248H284.991V130H240.383L244.031 106L240.383 82H284.671V92.752H248.255L253.631 86.736L256.767 106ZM292.668 82H305.916V130H292.668V82ZM330.428 82H343.74V130H330.428V82ZM300.092 99.728H335.932V111.504H300.092V99.728ZM352.73 82H365.978V130H352.73V82ZM390.49 82H403.802V130H390.49V82ZM360.154 99.728H395.994V111.504H360.154V99.728ZM439.161 131.024C433.486 131.024 428.494 129.979 424.185 127.888C419.918 125.797 416.59 122.875 414.201 119.12C411.854 115.365 410.681 110.992 410.681 106C410.681 101.008 411.854 96.6347 414.201 92.88C416.59 89.1253 419.918 86.2027 424.185 84.112C428.494 82.0213 433.486 80.976 439.161 80.976C444.878 80.976 449.87 82.0213 454.137 84.112C458.403 86.2027 461.731 89.1253 464.121 92.88C466.51 96.6347 467.705 101.008 467.705 106C467.705 110.992 466.51 115.365 464.121 119.12C461.731 122.875 458.403 125.797 454.137 127.888C449.87 129.979 444.878 131.024 439.161 131.024ZM439.161 119.184C442.275 119.184 444.963 118.651 447.225 117.584C449.486 116.517 451.214 115.003 452.409 113.04C453.646 111.077 454.265 108.731 454.265 106C454.265 103.269 453.646 100.923 452.409 98.96C451.214 96.9973 449.486 95.4827 447.225 94.416C444.963 93.3493 442.275 92.816 439.161 92.816C436.089 92.816 433.422 93.3493 431.161 94.416C428.899 95.4827 427.15 96.9973 425.913 98.96C424.675 100.923 424.057 103.269 424.057 106C424.057 108.731 424.675 111.077 425.913 113.04C427.15 115.003 428.899 116.517 431.161 117.584C433.422 118.651 436.089 119.184 439.161 119.184ZM35.992 173.512L37.08 171.016C40.792 171.101 43.8427 171.677 46.232 172.744C48.664 173.768 50.4773 175.219 51.672 177.096C52.8667 178.931 53.464 181.064 53.464 183.496C53.464 186.099 52.8667 188.424 51.672 190.472C50.4773 192.477 48.6853 194.077 46.296 195.272C43.9493 196.424 41.0053 197 37.464 197H2.008L5.72 172.36L2.008 149H36.184C40.6213 149 44.0773 150.045 46.552 152.136C49.0267 154.184 50.264 157.043 50.264 160.712C50.264 162.717 49.7947 164.637 48.856 166.472C47.9173 168.307 46.4027 169.864 44.312 171.144C42.264 172.381 39.4907 173.171 35.992 173.512ZM15.128 193.928L10.008 187.72H33.88C35.8 187.72 37.2933 187.251 38.36 186.312C39.4267 185.373 39.96 184.072 39.96 182.408C39.96 180.744 39.384 179.421 38.232 178.44C37.08 177.416 35.3733 176.904 33.112 176.904H13.4V167.816H31.32C32.856 167.816 34.136 167.368 35.16 166.472C36.2267 165.533 36.76 164.275 36.76 162.696C36.76 161.416 36.312 160.371 35.416 159.56C34.52 158.707 33.24 158.28 31.576 158.28H10.072L15.128 152.072L18.392 172.36L15.128 193.928ZM101.004 168.2V177.8H65.868V168.2H101.004ZM74.892 173L71.756 192.264L66.38 186.248H103.116V197H58.508L62.156 173L58.508 149H102.796V159.752H66.38L71.756 153.736L74.892 173ZM107.341 206.664V185.288H117.709L121.933 185.416H155.213L158.541 185.288H172.493V206.664H160.077V197H119.757V206.664H107.341ZM117.325 149H164.237V193.288H150.925V154.568L156.941 160.584H124.365L129.869 156.168C130.21 158.131 130.402 160.029 130.445 161.864C130.53 163.699 130.573 165.448 130.573 167.112C130.573 172.104 130.125 176.307 129.229 179.72C128.376 183.133 127.074 185.715 125.325 187.464C123.618 189.213 121.464 190.088 118.861 190.088L113.293 185.48C115 183.475 116.258 180.744 117.069 177.288C117.88 173.789 118.285 169.48 118.285 164.36C118.285 162.013 118.2 159.56 118.029 157C117.858 154.44 117.624 151.773 117.325 149ZM185.621 197L194.261 181.96H194.453L213.205 149H227.605L200.021 197H185.621ZM194.069 190.536L170.069 149H184.725L203.477 181.64L194.069 190.536ZM247.145 154.824H260.457V197H247.145V154.824ZM228.841 149H278.761V160.776H228.841V149ZM335.855 176.904C335.385 181.128 333.935 184.84 331.503 188.04C329.071 191.197 325.871 193.651 321.903 195.4C317.977 197.149 313.455 198.024 308.335 198.024C302.745 198.024 297.86 196.979 293.679 194.888C289.497 192.797 286.233 189.875 283.887 186.12C281.583 182.365 280.431 177.992 280.431 173C280.431 168.008 281.583 163.635 283.887 159.88C286.233 156.125 289.497 153.203 293.679 151.112C297.86 149.021 302.745 147.976 308.335 147.976C313.455 147.976 317.977 148.851 321.903 150.6C325.871 152.349 329.071 154.824 331.503 158.024C333.935 161.181 335.385 164.872 335.855 169.096H322.543C322.116 167.048 321.284 165.32 320.047 163.912C318.809 162.461 317.188 161.352 315.183 160.584C313.22 159.816 310.937 159.432 308.335 159.432C305.348 159.432 302.767 159.987 300.591 161.096C298.415 162.163 296.751 163.72 295.599 165.768C294.447 167.773 293.871 170.184 293.871 173C293.871 175.816 294.447 178.248 295.599 180.296C296.751 182.301 298.415 183.859 300.591 184.968C302.767 186.035 305.348 186.568 308.335 186.568C310.937 186.568 313.22 186.205 315.183 185.48C317.188 184.755 318.809 183.667 320.047 182.216C321.284 180.765 322.116 178.995 322.543 176.904H335.855ZM379.157 170.312V179.72H359.125L359.061 179.464C355.391 179.464 352.17 178.845 349.397 177.608C346.666 176.371 344.533 174.621 342.997 172.36C341.503 170.099 340.757 167.453 340.757 164.424C340.757 161.309 341.503 158.621 342.997 156.36C344.533 154.056 346.666 152.264 349.397 150.984C352.17 149.661 355.391 149 359.061 149H388.373V197H375.061V152.52L381.013 158.472H360.981C358.805 158.472 357.098 159.005 355.861 160.072C354.666 161.096 354.069 162.547 354.069 164.424C354.069 166.259 354.666 167.709 355.861 168.776C357.098 169.8 358.805 170.312 360.981 170.312H379.157ZM371.221 174.536L354.837 197H339.477L356.373 174.536H371.221ZM18.52 221.824H31.832V264H18.52V221.824ZM0.216 216H50.136V227.776H0.216V216ZM96.879 235.2V244.8H61.743V235.2H96.879ZM70.767 240L67.631 259.264L62.255 253.248H98.991V264H54.383L58.031 240L54.383 216H98.671V226.752H62.255L67.631 220.736L70.767 240ZM135.02 243.072V235.008L158.572 264H142.252L126.7 243.904H133.228L117.612 264H101.483L125.164 235.072V243.008L102.892 216H119.468L133.548 234.176H127.02L140.908 216H157.228L135.02 243.072ZM162.355 216H175.603V264H162.355V216ZM200.115 216H213.427V264H200.115V216ZM169.779 233.728H205.619V245.504H169.779V233.728ZM222.418 264V216H235.474V257.024L231.826 256.192L259.026 216H276.37V264H263.25V222.208L266.962 223.04L239.25 264H222.418ZM304.619 249.536C297.792 249.536 292.566 247.765 288.939 244.224C285.355 240.64 283.563 235.477 283.563 228.736V216H296.811V227.648C296.811 231.019 297.728 233.557 299.563 235.264C301.398 236.971 304.15 237.824 307.819 237.824C309.952 237.824 312.192 237.589 314.539 237.12C316.886 236.608 319.232 235.883 321.579 234.944L322.347 245.568C319.787 246.848 316.992 247.829 313.963 248.512C310.934 249.195 307.819 249.536 304.619 249.536ZM319.851 264V216H333.163V264H319.851ZM383.067 235.2V244.8H347.931V235.2H383.067ZM356.955 240L353.819 259.264L348.443 253.248H385.179V264H340.571L344.219 240L340.571 216H384.859V226.752H348.443L353.819 220.736L356.955 240ZM445.417 243.904C444.948 248.128 443.497 251.84 441.065 255.04C438.633 258.197 435.433 260.651 431.465 262.4C427.54 264.149 423.017 265.024 417.897 265.024C412.308 265.024 407.422 263.979 403.241 261.888C399.06 259.797 395.796 256.875 393.449 253.12C391.145 249.365 389.993 244.992 389.993 240C389.993 235.008 391.145 230.635 393.449 226.88C395.796 223.125 399.06 220.203 403.241 218.112C407.422 216.021 412.308 214.976 417.897 214.976C423.017 214.976 427.54 215.851 431.465 217.6C435.433 219.349 438.633 221.824 441.065 225.024C443.497 228.181 444.948 231.872 445.417 236.096H432.105C431.678 234.048 430.846 232.32 429.609 230.912C428.372 229.461 426.75 228.352 424.745 227.584C422.782 226.816 420.5 226.432 417.897 226.432C414.91 226.432 412.329 226.987 410.153 228.096C407.977 229.163 406.313 230.72 405.161 232.768C404.009 234.773 403.433 237.184 403.433 240C403.433 242.816 404.009 245.248 405.161 247.296C406.313 249.301 407.977 250.859 410.153 251.968C412.329 253.035 414.91 253.568 417.897 253.568C420.5 253.568 422.782 253.205 424.745 252.48C426.75 251.755 428.372 250.667 429.609 249.216C430.846 247.765 431.678 245.995 432.105 243.904H445.417ZM451.855 264V216H465.039V253.44L461.519 250.688L488.719 216H502.735L463.823 264H451.855ZM474.767 241.088L484.495 233.024L503.375 264H488.335L474.767 241.088ZM507.543 264V216H520.599V257.024L516.951 256.192L544.151 216H561.495V264H548.375V222.208L552.087 223.04L524.375 264H507.543ZM611.504 235.2V244.8H576.368V235.2H611.504ZM585.392 240L582.256 259.264L576.88 253.248H613.616V264H569.008L572.656 240L569.008 216H613.296V226.752H576.88L582.256 220.736L585.392 240ZM30.424 283C34.4347 283 37.8907 283.683 40.792 285.048C43.736 286.413 45.976 288.355 47.512 290.872C49.048 293.347 49.816 296.248 49.816 299.576C49.816 302.861 49.048 305.763 47.512 308.28C45.976 310.755 43.736 312.675 40.792 314.04C37.8907 315.405 34.4347 316.088 30.424 316.088H9.624V305.464H29.592C31.7253 305.464 33.3893 304.952 34.584 303.928C35.7787 302.861 36.376 301.411 36.376 299.576C36.376 297.699 35.7787 296.248 34.584 295.224C33.3893 294.157 31.7253 293.624 29.592 293.624H10.776L16.728 287.48V331H3.48V283H30.424ZM59.449 321.784V311.096H92.537V321.784H59.449ZM84.985 283L106.809 331H92.665L74.361 288.632H78.201L59.833 331H45.689L67.513 283H84.985ZM119.931 301.24H141.115C145.168 301.24 148.496 301.859 151.099 303.096C153.702 304.333 155.643 306.083 156.923 308.344C158.203 310.563 158.843 313.165 158.843 316.152C158.843 319.139 158.139 321.763 156.731 324.024C155.323 326.243 153.296 327.971 150.651 329.208C148.006 330.403 144.827 331 141.115 331H109.883L113.595 306.104L109.883 283H155.131V293.048H118.139L123.195 286.968L126.203 305.848L122.939 327.416L117.883 321.336H139.387C141.307 321.336 142.822 320.845 143.931 319.864C145.083 318.883 145.659 317.539 145.659 315.832C145.659 314.083 145.083 312.739 143.931 311.8C142.822 310.819 141.307 310.328 139.387 310.328H119.931V301.24ZM191.598 332.024C185.923 332.024 180.931 330.979 176.622 328.888C172.355 326.797 169.027 323.875 166.638 320.12C164.291 316.365 163.118 311.992 163.118 307C163.118 302.008 164.291 297.635 166.638 293.88C169.027 290.125 172.355 287.203 176.622 285.112C180.931 283.021 185.923 281.976 191.598 281.976C197.315 281.976 202.307 283.021 206.574 285.112C210.841 287.203 214.169 290.125 216.558 293.88C218.947 297.635 220.142 302.008 220.142 307C220.142 311.992 218.947 316.365 216.558 320.12C214.169 323.875 210.841 326.797 206.574 328.888C202.307 330.979 197.315 332.024 191.598 332.024ZM191.598 320.184C194.713 320.184 197.401 319.651 199.662 318.584C201.923 317.517 203.651 316.003 204.846 314.04C206.083 312.077 206.702 309.731 206.702 307C206.702 304.269 206.083 301.923 204.846 299.96C203.651 297.997 201.923 296.483 199.662 295.416C197.401 294.349 194.713 293.816 191.598 293.816C188.526 293.816 185.859 294.349 183.598 295.416C181.337 296.483 179.587 297.997 178.35 299.96C177.113 301.923 176.494 304.269 176.494 307C176.494 309.731 177.113 312.077 178.35 314.04C179.587 316.003 181.337 317.517 183.598 318.584C185.859 319.651 188.526 320.184 191.598 320.184ZM240.083 288.824H253.395V331H240.083V288.824ZM221.779 283H271.699V294.776H221.779V283ZM277.418 331V283H290.666V326.52L284.714 320.568H303.402C305.578 320.568 307.263 320.013 308.458 318.904C309.695 317.795 310.314 316.301 310.314 314.424C310.314 312.504 309.695 311.011 308.458 309.944C307.263 308.877 305.578 308.344 303.402 308.344H283.562V297.848H304.234C308.287 297.848 311.764 298.552 314.666 299.96C317.61 301.325 319.85 303.245 321.386 305.72C322.964 308.195 323.754 311.096 323.754 314.424C323.754 317.752 322.964 320.675 321.386 323.192C319.85 325.667 317.61 327.587 314.666 328.952C311.764 330.317 308.287 331 304.234 331H277.418ZM327.722 283H340.97V331H327.722V283Z" fill="url(#paint1_radial_7570_847)"/>
<defs>
<linearGradient id="paint0_linear_7570_847" x1="189.412" y1="-37.8056" x2="470.854" y2="472.626" gradientUnits="userSpaceOnUse">
<stop stop-color="#666666"/>
<stop offset="1" stop-color="#CCCCCC"/>
</linearGradient>
<radialGradient id="paint1_radial_7570_847" cx="0" cy="0" r="1" gradientUnits="userSpaceOnUse" gradientTransform="translate(64.5147 744.792) rotate(-81.9618) scale(993.827 721.676)">
<stop stop-color="#CCCCCC"/>
<stop offset="0.472868" stop-color="#E6CEFF"/>
<stop offset="1" stop-color="#222531"/>
</radialGradient>
</defs>
</svg>
