<svg width="170" height="47" viewBox="0 0 170 47" fill="none" xmlns="http://www.w3.org/2000/svg">
<path d="M13.9014 19.0995H11.5214L19.3375 1.33065H25.2605L15.8216 21.6147H9.46591L0.0270455 1.33065H6.03114L13.9014 19.0995ZM27.1691 1.33065H32.7675V21.6147H27.1691V1.33065ZM50.2843 11.6891L50.744 10.6343C52.3127 10.6704 53.6018 10.9138 54.6115 11.3645C55.6393 11.7972 56.4055 12.4103 56.9104 13.2036C57.4152 13.9789 57.6677 14.8804 57.6677 15.9082C57.6677 17.008 57.4152 17.9907 56.9104 18.8561C56.4055 19.7035 55.6483 20.3797 54.6386 20.8845C53.6469 21.3713 52.4028 21.6147 50.9063 21.6147H35.9231L37.4918 11.2022L35.9231 1.33065H50.3654C52.2406 1.33065 53.701 1.7724 54.7468 2.65588C55.7925 3.52134 56.3154 4.72937 56.3154 6.27997C56.3154 7.1274 56.1171 7.93876 55.7204 8.71406C55.3237 9.48937 54.6837 10.1475 53.8002 10.6884C52.9347 11.2113 51.7627 11.5448 50.2843 11.6891ZM41.4674 20.3166L39.3038 17.6932H49.3918C50.2031 17.6932 50.8342 17.4948 51.2849 17.0982C51.7357 16.7015 51.9611 16.1516 51.9611 15.4484C51.9611 14.7452 51.7177 14.1863 51.2309 13.7716C50.744 13.3388 50.0228 13.1225 49.0672 13.1225H40.7372V9.28202H48.3099C48.959 9.28202 49.4999 9.0927 49.9327 8.71406C50.3834 8.3174 50.6088 7.7855 50.6088 7.11838C50.6088 6.57747 50.4195 6.13573 50.0409 5.79315C49.6622 5.43255 49.1213 5.25225 48.4181 5.25225H39.3309L41.4674 2.62884L42.8468 11.2022L41.4674 20.3166ZM64.2887 10.2016H71.6721C72.5737 10.2016 73.2768 9.99422 73.7817 9.57952C74.2865 9.16482 74.539 8.58785 74.539 7.84861C74.539 7.09134 74.2865 6.51437 73.7817 6.1177C73.2768 5.703 72.5737 5.49566 71.6721 5.49566H63.5044L66.0196 2.81815V21.6147H60.4212V1.33065H72.4565C74.0071 1.33065 75.3593 1.61012 76.5133 2.16906C77.6672 2.70997 78.5687 3.46725 79.2178 4.44088C79.8669 5.39649 80.1915 6.5324 80.1915 7.84861C80.1915 9.12876 79.8669 10.2557 79.2178 11.2293C78.5687 12.2029 77.6672 12.9602 76.5133 13.5011C75.3593 14.042 74.0071 14.3125 72.4565 14.3125H64.2887V10.2016ZM67.3178 12.1218H73.6194L80.8946 21.6147H74.4037L67.3178 12.1218ZM94.3307 22.0475C91.9327 22.0475 89.8232 21.6057 88.0021 20.7222C86.1991 19.8388 84.7927 18.6037 83.783 17.017C82.7913 15.4304 82.2955 13.5822 82.2955 11.4727C82.2955 9.36315 82.7913 7.51505 83.783 5.92838C84.7927 4.34171 86.1991 3.10664 88.0021 2.22316C89.8232 1.33967 91.9327 0.897927 94.3307 0.897927C96.7468 0.897927 98.8563 1.33967 100.659 2.22316C102.462 3.10664 103.869 4.34171 104.878 5.92838C105.888 7.51505 106.393 9.36315 106.393 11.4727C106.393 13.5822 105.888 15.4304 104.878 17.017C103.869 18.6037 102.462 19.8388 100.659 20.7222C98.8563 21.6057 96.7468 22.0475 94.3307 22.0475ZM94.3307 17.0441C95.647 17.0441 96.7829 16.8187 97.7385 16.3679C98.6941 15.9172 99.4243 15.2771 99.9291 14.4477C100.452 13.6183 100.713 12.6266 100.713 11.4727C100.713 10.3188 100.452 9.32709 99.9291 8.4977C99.4243 7.66831 98.6941 7.02823 97.7385 6.57747C96.7829 6.12672 95.647 5.90134 94.3307 5.90134C93.0326 5.90134 91.9057 6.12672 90.9501 6.57747C89.9945 7.02823 89.2552 7.66831 88.7323 8.4977C88.2095 9.32709 87.948 10.3188 87.948 11.4727C87.948 12.6266 88.2095 13.6183 88.7323 14.4477C89.2552 15.2771 89.9945 15.9172 90.9501 16.3679C91.9057 16.8187 93.0326 17.0441 94.3307 17.0441ZM0.973636 38.9616H6.68023C6.77038 39.5205 7.03182 40.0073 7.46455 40.422C7.89727 40.8367 8.47424 41.1613 9.19545 41.3957C9.9347 41.612 10.8002 41.7202 11.7918 41.7202C13.1621 41.7202 14.2439 41.5489 15.0373 41.2063C15.8306 40.8457 16.2273 40.3229 16.2273 39.6377C16.2273 39.1148 16.0019 38.7091 15.5511 38.4207C15.1004 38.1322 14.2349 37.9248 12.9548 37.7986L9.16841 37.447C6.37371 37.1946 4.3453 36.5635 3.08318 35.5538C1.82106 34.5261 1.19 33.1468 1.19 31.4159C1.19 30.0095 1.59568 28.8195 2.40705 27.8459C3.23644 26.8722 4.39038 26.142 5.86886 25.6552C7.36538 25.1504 9.1053 24.8979 11.0886 24.8979C13.0359 24.8979 14.7668 25.1774 16.2814 25.7363C17.7959 26.2772 18.9949 27.0525 19.8784 28.0622C20.7799 29.0719 21.2667 30.2439 21.3389 31.5782H15.6593C15.5872 31.0913 15.3528 30.6766 14.9561 30.3341C14.5775 29.9735 14.0546 29.703 13.3875 29.5227C12.7204 29.3244 11.918 29.2252 10.9805 29.2252C9.71833 29.2252 8.71765 29.3965 7.97841 29.7391C7.23917 30.0636 6.86955 30.5504 6.86955 31.1995C6.86955 31.6683 7.08591 32.0469 7.51864 32.3354C7.96939 32.6239 8.77174 32.8222 9.92568 32.9304L13.9555 33.3361C15.8847 33.5164 17.4263 33.8319 18.5802 34.2827C19.7342 34.7154 20.5726 35.3194 21.0955 36.0947C21.6183 36.87 21.8798 37.8347 21.8798 38.9886C21.8798 40.413 21.4561 41.6571 20.6086 42.7209C19.7612 43.7666 18.5712 44.587 17.0386 45.182C15.5061 45.759 13.7211 46.0475 11.6836 46.0475C9.59212 46.0475 7.74402 45.759 6.13932 45.182C4.55265 44.587 3.30856 43.7576 2.40705 42.6938C1.50553 41.612 1.02773 40.3679 0.973636 38.9616ZM47.2152 37.1225C47.0169 38.9075 46.4039 40.4761 45.3761 41.8284C44.3484 43.1626 42.9961 44.1994 41.3193 44.9386C39.6605 45.6779 37.7493 46.0475 35.5857 46.0475C33.2237 46.0475 31.1593 45.6057 29.3923 44.7222C27.6253 43.8388 26.246 42.6037 25.2543 41.017C24.2807 39.4304 23.7939 37.5822 23.7939 35.4727C23.7939 33.3632 24.2807 31.515 25.2543 29.9284C26.246 28.3417 27.6253 27.1066 29.3923 26.2232C31.1593 25.3397 33.2237 24.8979 35.5857 24.8979C37.7493 24.8979 39.6605 25.2675 41.3193 26.0068C42.9961 26.746 44.3484 27.7918 45.3761 29.1441C46.4039 30.4783 47.0169 32.0379 47.2152 33.8229H41.5898C41.4095 32.9575 41.0579 32.2272 40.535 31.6322C40.0121 31.0192 39.327 30.5504 38.4796 30.2259C37.6502 29.9013 36.6855 29.7391 35.5857 29.7391C34.3236 29.7391 33.2327 29.9735 32.3132 30.4422C31.3936 30.893 30.6905 31.5511 30.2036 32.4166C29.7168 33.264 29.4734 34.2827 29.4734 35.4727C29.4734 36.6627 29.7168 37.6904 30.2036 38.5559C30.6905 39.4033 31.3936 40.0614 32.3132 40.5302C33.2327 40.981 34.3236 41.2063 35.5857 41.2063C36.6855 41.2063 37.6502 41.0531 38.4796 40.7466C39.327 40.44 40.0121 39.9803 40.535 39.3672C41.0579 38.7542 41.4095 38.006 41.5898 37.1225H47.2152ZM52.828 41.7202V37.2036H66.8105V41.7202H52.828ZM63.6191 25.3307L72.8416 45.6147H66.8646L59.1296 27.7107H60.7523L52.9903 45.6147H47.0132L56.2357 25.3307H63.6191ZM93.5593 41.6932L91.8284 42.0447V25.3307H97.2645V45.6147H90.2057L78.495 28.9277L80.1989 28.5761V45.6147H74.7627V25.3307H82.0109L93.5593 41.6932ZM119.839 41.6932L118.108 42.0447V25.3307H123.544V45.6147H116.485L104.775 28.9277L106.478 28.5761V45.6147H101.042V25.3307H108.29L119.839 41.6932ZM144.658 33.4443V37.5011H129.81V33.4443H144.658ZM133.623 35.4727L132.298 43.6134L130.026 41.0711H145.55V45.6147H126.7L128.241 35.4727L126.7 25.3307H145.415V29.8743H130.026L132.298 27.332L133.623 35.4727ZM152.662 34.2016H160.045C160.947 34.2016 161.65 33.9942 162.155 33.5795C162.66 33.1648 162.912 32.5879 162.912 31.8486C162.912 31.0913 162.66 30.5144 162.155 30.1177C161.65 29.703 160.947 29.4957 160.045 29.4957H151.878L154.393 26.8182V45.6147H148.794V25.3307H160.83C162.38 25.3307 163.732 25.6101 164.886 26.1691C166.04 26.71 166.942 27.4672 167.591 28.4409C168.24 29.3965 168.565 30.5324 168.565 31.8486C168.565 33.1288 168.24 34.2557 167.591 35.2293C166.942 36.2029 166.04 36.9602 164.886 37.5011C163.732 38.042 162.38 38.3125 160.83 38.3125H152.662V34.2016ZM155.691 36.1218H161.993L169.268 45.6147H162.777L155.691 36.1218Z" fill="#CCCCCC"/>
<path d="M13.9014 19.0995H11.5214L19.3375 1.33065H25.2605L15.8216 21.6147H9.46591L0.0270455 1.33065H6.03114L13.9014 19.0995ZM27.1691 1.33065H32.7675V21.6147H27.1691V1.33065ZM50.2843 11.6891L50.744 10.6343C52.3127 10.6704 53.6018 10.9138 54.6115 11.3645C55.6393 11.7972 56.4055 12.4103 56.9104 13.2036C57.4152 13.9789 57.6677 14.8804 57.6677 15.9082C57.6677 17.008 57.4152 17.9907 56.9104 18.8561C56.4055 19.7035 55.6483 20.3797 54.6386 20.8845C53.6469 21.3713 52.4028 21.6147 50.9063 21.6147H35.9231L37.4918 11.2022L35.9231 1.33065H50.3654C52.2406 1.33065 53.701 1.7724 54.7468 2.65588C55.7925 3.52134 56.3154 4.72937 56.3154 6.27997C56.3154 7.1274 56.1171 7.93876 55.7204 8.71406C55.3237 9.48937 54.6837 10.1475 53.8002 10.6884C52.9347 11.2113 51.7627 11.5448 50.2843 11.6891ZM41.4674 20.3166L39.3038 17.6932H49.3918C50.2031 17.6932 50.8342 17.4948 51.2849 17.0982C51.7357 16.7015 51.9611 16.1516 51.9611 15.4484C51.9611 14.7452 51.7177 14.1863 51.2309 13.7716C50.744 13.3388 50.0228 13.1225 49.0672 13.1225H40.7372V9.28202H48.3099C48.959 9.28202 49.4999 9.0927 49.9327 8.71406C50.3834 8.3174 50.6088 7.7855 50.6088 7.11838C50.6088 6.57747 50.4195 6.13573 50.0409 5.79315C49.6622 5.43255 49.1213 5.25225 48.4181 5.25225H39.3309L41.4674 2.62884L42.8468 11.2022L41.4674 20.3166ZM64.2887 10.2016H71.6721C72.5737 10.2016 73.2768 9.99422 73.7817 9.57952C74.2865 9.16482 74.539 8.58785 74.539 7.84861C74.539 7.09134 74.2865 6.51437 73.7817 6.1177C73.2768 5.703 72.5737 5.49566 71.6721 5.49566H63.5044L66.0196 2.81815V21.6147H60.4212V1.33065H72.4565C74.0071 1.33065 75.3593 1.61012 76.5133 2.16906C77.6672 2.70997 78.5687 3.46725 79.2178 4.44088C79.8669 5.39649 80.1915 6.5324 80.1915 7.84861C80.1915 9.12876 79.8669 10.2557 79.2178 11.2293C78.5687 12.2029 77.6672 12.9602 76.5133 13.5011C75.3593 14.042 74.0071 14.3125 72.4565 14.3125H64.2887V10.2016ZM67.3178 12.1218H73.6194L80.8946 21.6147H74.4037L67.3178 12.1218ZM94.3307 22.0475C91.9327 22.0475 89.8232 21.6057 88.0021 20.7222C86.1991 19.8388 84.7927 18.6037 83.783 17.017C82.7913 15.4304 82.2955 13.5822 82.2955 11.4727C82.2955 9.36315 82.7913 7.51505 83.783 5.92838C84.7927 4.34171 86.1991 3.10664 88.0021 2.22316C89.8232 1.33967 91.9327 0.897927 94.3307 0.897927C96.7468 0.897927 98.8563 1.33967 100.659 2.22316C102.462 3.10664 103.869 4.34171 104.878 5.92838C105.888 7.51505 106.393 9.36315 106.393 11.4727C106.393 13.5822 105.888 15.4304 104.878 17.017C103.869 18.6037 102.462 19.8388 100.659 20.7222C98.8563 21.6057 96.7468 22.0475 94.3307 22.0475ZM94.3307 17.0441C95.647 17.0441 96.7829 16.8187 97.7385 16.3679C98.6941 15.9172 99.4243 15.2771 99.9291 14.4477C100.452 13.6183 100.713 12.6266 100.713 11.4727C100.713 10.3188 100.452 9.32709 99.9291 8.4977C99.4243 7.66831 98.6941 7.02823 97.7385 6.57747C96.7829 6.12672 95.647 5.90134 94.3307 5.90134C93.0326 5.90134 91.9057 6.12672 90.9501 6.57747C89.9945 7.02823 89.2552 7.66831 88.7323 8.4977C88.2095 9.32709 87.948 10.3188 87.948 11.4727C87.948 12.6266 88.2095 13.6183 88.7323 14.4477C89.2552 15.2771 89.9945 15.9172 90.9501 16.3679C91.9057 16.8187 93.0326 17.0441 94.3307 17.0441ZM0.973636 38.9616H6.68023C6.77038 39.5205 7.03182 40.0073 7.46455 40.422C7.89727 40.8367 8.47424 41.1613 9.19545 41.3957C9.9347 41.612 10.8002 41.7202 11.7918 41.7202C13.1621 41.7202 14.2439 41.5489 15.0373 41.2063C15.8306 40.8457 16.2273 40.3229 16.2273 39.6377C16.2273 39.1148 16.0019 38.7091 15.5511 38.4207C15.1004 38.1322 14.2349 37.9248 12.9548 37.7986L9.16841 37.447C6.37371 37.1946 4.3453 36.5635 3.08318 35.5538C1.82106 34.5261 1.19 33.1468 1.19 31.4159C1.19 30.0095 1.59568 28.8195 2.40705 27.8459C3.23644 26.8722 4.39038 26.142 5.86886 25.6552C7.36538 25.1504 9.1053 24.8979 11.0886 24.8979C13.0359 24.8979 14.7668 25.1774 16.2814 25.7363C17.7959 26.2772 18.9949 27.0525 19.8784 28.0622C20.7799 29.0719 21.2667 30.2439 21.3389 31.5782H15.6593C15.5872 31.0913 15.3528 30.6766 14.9561 30.3341C14.5775 29.9735 14.0546 29.703 13.3875 29.5227C12.7204 29.3244 11.918 29.2252 10.9805 29.2252C9.71833 29.2252 8.71765 29.3965 7.97841 29.7391C7.23917 30.0636 6.86955 30.5504 6.86955 31.1995C6.86955 31.6683 7.08591 32.0469 7.51864 32.3354C7.96939 32.6239 8.77174 32.8222 9.92568 32.9304L13.9555 33.3361C15.8847 33.5164 17.4263 33.8319 18.5802 34.2827C19.7342 34.7154 20.5726 35.3194 21.0955 36.0947C21.6183 36.87 21.8798 37.8347 21.8798 38.9886C21.8798 40.413 21.4561 41.6571 20.6086 42.7209C19.7612 43.7666 18.5712 44.587 17.0386 45.182C15.5061 45.759 13.7211 46.0475 11.6836 46.0475C9.59212 46.0475 7.74402 45.759 6.13932 45.182C4.55265 44.587 3.30856 43.7576 2.40705 42.6938C1.50553 41.612 1.02773 40.3679 0.973636 38.9616ZM47.2152 37.1225C47.0169 38.9075 46.4039 40.4761 45.3761 41.8284C44.3484 43.1626 42.9961 44.1994 41.3193 44.9386C39.6605 45.6779 37.7493 46.0475 35.5857 46.0475C33.2237 46.0475 31.1593 45.6057 29.3923 44.7222C27.6253 43.8388 26.246 42.6037 25.2543 41.017C24.2807 39.4304 23.7939 37.5822 23.7939 35.4727C23.7939 33.3632 24.2807 31.515 25.2543 29.9284C26.246 28.3417 27.6253 27.1066 29.3923 26.2232C31.1593 25.3397 33.2237 24.8979 35.5857 24.8979C37.7493 24.8979 39.6605 25.2675 41.3193 26.0068C42.9961 26.746 44.3484 27.7918 45.3761 29.1441C46.4039 30.4783 47.0169 32.0379 47.2152 33.8229H41.5898C41.4095 32.9575 41.0579 32.2272 40.535 31.6322C40.0121 31.0192 39.327 30.5504 38.4796 30.2259C37.6502 29.9013 36.6855 29.7391 35.5857 29.7391C34.3236 29.7391 33.2327 29.9735 32.3132 30.4422C31.3936 30.893 30.6905 31.5511 30.2036 32.4166C29.7168 33.264 29.4734 34.2827 29.4734 35.4727C29.4734 36.6627 29.7168 37.6904 30.2036 38.5559C30.6905 39.4033 31.3936 40.0614 32.3132 40.5302C33.2327 40.981 34.3236 41.2063 35.5857 41.2063C36.6855 41.2063 37.6502 41.0531 38.4796 40.7466C39.327 40.44 40.0121 39.9803 40.535 39.3672C41.0579 38.7542 41.4095 38.006 41.5898 37.1225H47.2152ZM52.828 41.7202V37.2036H66.8105V41.7202H52.828ZM63.6191 25.3307L72.8416 45.6147H66.8646L59.1296 27.7107H60.7523L52.9903 45.6147H47.0132L56.2357 25.3307H63.6191ZM93.5593 41.6932L91.8284 42.0447V25.3307H97.2645V45.6147H90.2057L78.495 28.9277L80.1989 28.5761V45.6147H74.7627V25.3307H82.0109L93.5593 41.6932ZM119.839 41.6932L118.108 42.0447V25.3307H123.544V45.6147H116.485L104.775 28.9277L106.478 28.5761V45.6147H101.042V25.3307H108.29L119.839 41.6932ZM144.658 33.4443V37.5011H129.81V33.4443H144.658ZM133.623 35.4727L132.298 43.6134L130.026 41.0711H145.55V45.6147H126.7L128.241 35.4727L126.7 25.3307H145.415V29.8743H130.026L132.298 27.332L133.623 35.4727ZM152.662 34.2016H160.045C160.947 34.2016 161.65 33.9942 162.155 33.5795C162.66 33.1648 162.912 32.5879 162.912 31.8486C162.912 31.0913 162.66 30.5144 162.155 30.1177C161.65 29.703 160.947 29.4957 160.045 29.4957H151.878L154.393 26.8182V45.6147H148.794V25.3307H160.83C162.38 25.3307 163.732 25.6101 164.886 26.1691C166.04 26.71 166.942 27.4672 167.591 28.4409C168.24 29.3965 168.565 30.5324 168.565 31.8486C168.565 33.1288 168.24 34.2557 167.591 35.2293C166.942 36.2029 166.04 36.9602 164.886 37.5011C163.732 38.042 162.38 38.3125 160.83 38.3125H152.662V34.2016ZM155.691 36.1218H161.993L169.268 45.6147H162.777L155.691 36.1218Z" fill="url(#paint0_linear_7131_906)"/>
<path d="M13.9014 19.0995H11.5214L19.3375 1.33065H25.2605L15.8216 21.6147H9.46591L0.0270455 1.33065H6.03114L13.9014 19.0995ZM27.1691 1.33065H32.7675V21.6147H27.1691V1.33065ZM50.2843 11.6891L50.744 10.6343C52.3127 10.6704 53.6018 10.9138 54.6115 11.3645C55.6393 11.7972 56.4055 12.4103 56.9104 13.2036C57.4152 13.9789 57.6677 14.8804 57.6677 15.9082C57.6677 17.008 57.4152 17.9907 56.9104 18.8561C56.4055 19.7035 55.6483 20.3797 54.6386 20.8845C53.6469 21.3713 52.4028 21.6147 50.9063 21.6147H35.9231L37.4918 11.2022L35.9231 1.33065H50.3654C52.2406 1.33065 53.701 1.7724 54.7468 2.65588C55.7925 3.52134 56.3154 4.72937 56.3154 6.27997C56.3154 7.1274 56.1171 7.93876 55.7204 8.71406C55.3237 9.48937 54.6837 10.1475 53.8002 10.6884C52.9347 11.2113 51.7627 11.5448 50.2843 11.6891ZM41.4674 20.3166L39.3038 17.6932H49.3918C50.2031 17.6932 50.8342 17.4948 51.2849 17.0982C51.7357 16.7015 51.9611 16.1516 51.9611 15.4484C51.9611 14.7452 51.7177 14.1863 51.2309 13.7716C50.744 13.3388 50.0228 13.1225 49.0672 13.1225H40.7372V9.28202H48.3099C48.959 9.28202 49.4999 9.0927 49.9327 8.71406C50.3834 8.3174 50.6088 7.7855 50.6088 7.11838C50.6088 6.57747 50.4195 6.13573 50.0409 5.79315C49.6622 5.43255 49.1213 5.25225 48.4181 5.25225H39.3309L41.4674 2.62884L42.8468 11.2022L41.4674 20.3166ZM64.2887 10.2016H71.6721C72.5737 10.2016 73.2768 9.99422 73.7817 9.57952C74.2865 9.16482 74.539 8.58785 74.539 7.84861C74.539 7.09134 74.2865 6.51437 73.7817 6.1177C73.2768 5.703 72.5737 5.49566 71.6721 5.49566H63.5044L66.0196 2.81815V21.6147H60.4212V1.33065H72.4565C74.0071 1.33065 75.3593 1.61012 76.5133 2.16906C77.6672 2.70997 78.5687 3.46725 79.2178 4.44088C79.8669 5.39649 80.1915 6.5324 80.1915 7.84861C80.1915 9.12876 79.8669 10.2557 79.2178 11.2293C78.5687 12.2029 77.6672 12.9602 76.5133 13.5011C75.3593 14.042 74.0071 14.3125 72.4565 14.3125H64.2887V10.2016ZM67.3178 12.1218H73.6194L80.8946 21.6147H74.4037L67.3178 12.1218ZM94.3307 22.0475C91.9327 22.0475 89.8232 21.6057 88.0021 20.7222C86.1991 19.8388 84.7927 18.6037 83.783 17.017C82.7913 15.4304 82.2955 13.5822 82.2955 11.4727C82.2955 9.36315 82.7913 7.51505 83.783 5.92838C84.7927 4.34171 86.1991 3.10664 88.0021 2.22316C89.8232 1.33967 91.9327 0.897927 94.3307 0.897927C96.7468 0.897927 98.8563 1.33967 100.659 2.22316C102.462 3.10664 103.869 4.34171 104.878 5.92838C105.888 7.51505 106.393 9.36315 106.393 11.4727C106.393 13.5822 105.888 15.4304 104.878 17.017C103.869 18.6037 102.462 19.8388 100.659 20.7222C98.8563 21.6057 96.7468 22.0475 94.3307 22.0475ZM94.3307 17.0441C95.647 17.0441 96.7829 16.8187 97.7385 16.3679C98.6941 15.9172 99.4243 15.2771 99.9291 14.4477C100.452 13.6183 100.713 12.6266 100.713 11.4727C100.713 10.3188 100.452 9.32709 99.9291 8.4977C99.4243 7.66831 98.6941 7.02823 97.7385 6.57747C96.7829 6.12672 95.647 5.90134 94.3307 5.90134C93.0326 5.90134 91.9057 6.12672 90.9501 6.57747C89.9945 7.02823 89.2552 7.66831 88.7323 8.4977C88.2095 9.32709 87.948 10.3188 87.948 11.4727C87.948 12.6266 88.2095 13.6183 88.7323 14.4477C89.2552 15.2771 89.9945 15.9172 90.9501 16.3679C91.9057 16.8187 93.0326 17.0441 94.3307 17.0441ZM0.973636 38.9616H6.68023C6.77038 39.5205 7.03182 40.0073 7.46455 40.422C7.89727 40.8367 8.47424 41.1613 9.19545 41.3957C9.9347 41.612 10.8002 41.7202 11.7918 41.7202C13.1621 41.7202 14.2439 41.5489 15.0373 41.2063C15.8306 40.8457 16.2273 40.3229 16.2273 39.6377C16.2273 39.1148 16.0019 38.7091 15.5511 38.4207C15.1004 38.1322 14.2349 37.9248 12.9548 37.7986L9.16841 37.447C6.37371 37.1946 4.3453 36.5635 3.08318 35.5538C1.82106 34.5261 1.19 33.1468 1.19 31.4159C1.19 30.0095 1.59568 28.8195 2.40705 27.8459C3.23644 26.8722 4.39038 26.142 5.86886 25.6552C7.36538 25.1504 9.1053 24.8979 11.0886 24.8979C13.0359 24.8979 14.7668 25.1774 16.2814 25.7363C17.7959 26.2772 18.9949 27.0525 19.8784 28.0622C20.7799 29.0719 21.2667 30.2439 21.3389 31.5782H15.6593C15.5872 31.0913 15.3528 30.6766 14.9561 30.3341C14.5775 29.9735 14.0546 29.703 13.3875 29.5227C12.7204 29.3244 11.918 29.2252 10.9805 29.2252C9.71833 29.2252 8.71765 29.3965 7.97841 29.7391C7.23917 30.0636 6.86955 30.5504 6.86955 31.1995C6.86955 31.6683 7.08591 32.0469 7.51864 32.3354C7.96939 32.6239 8.77174 32.8222 9.92568 32.9304L13.9555 33.3361C15.8847 33.5164 17.4263 33.8319 18.5802 34.2827C19.7342 34.7154 20.5726 35.3194 21.0955 36.0947C21.6183 36.87 21.8798 37.8347 21.8798 38.9886C21.8798 40.413 21.4561 41.6571 20.6086 42.7209C19.7612 43.7666 18.5712 44.587 17.0386 45.182C15.5061 45.759 13.7211 46.0475 11.6836 46.0475C9.59212 46.0475 7.74402 45.759 6.13932 45.182C4.55265 44.587 3.30856 43.7576 2.40705 42.6938C1.50553 41.612 1.02773 40.3679 0.973636 38.9616ZM47.2152 37.1225C47.0169 38.9075 46.4039 40.4761 45.3761 41.8284C44.3484 43.1626 42.9961 44.1994 41.3193 44.9386C39.6605 45.6779 37.7493 46.0475 35.5857 46.0475C33.2237 46.0475 31.1593 45.6057 29.3923 44.7222C27.6253 43.8388 26.246 42.6037 25.2543 41.017C24.2807 39.4304 23.7939 37.5822 23.7939 35.4727C23.7939 33.3632 24.2807 31.515 25.2543 29.9284C26.246 28.3417 27.6253 27.1066 29.3923 26.2232C31.1593 25.3397 33.2237 24.8979 35.5857 24.8979C37.7493 24.8979 39.6605 25.2675 41.3193 26.0068C42.9961 26.746 44.3484 27.7918 45.3761 29.1441C46.4039 30.4783 47.0169 32.0379 47.2152 33.8229H41.5898C41.4095 32.9575 41.0579 32.2272 40.535 31.6322C40.0121 31.0192 39.327 30.5504 38.4796 30.2259C37.6502 29.9013 36.6855 29.7391 35.5857 29.7391C34.3236 29.7391 33.2327 29.9735 32.3132 30.4422C31.3936 30.893 30.6905 31.5511 30.2036 32.4166C29.7168 33.264 29.4734 34.2827 29.4734 35.4727C29.4734 36.6627 29.7168 37.6904 30.2036 38.5559C30.6905 39.4033 31.3936 40.0614 32.3132 40.5302C33.2327 40.981 34.3236 41.2063 35.5857 41.2063C36.6855 41.2063 37.6502 41.0531 38.4796 40.7466C39.327 40.44 40.0121 39.9803 40.535 39.3672C41.0579 38.7542 41.4095 38.006 41.5898 37.1225H47.2152ZM52.828 41.7202V37.2036H66.8105V41.7202H52.828ZM63.6191 25.3307L72.8416 45.6147H66.8646L59.1296 27.7107H60.7523L52.9903 45.6147H47.0132L56.2357 25.3307H63.6191ZM93.5593 41.6932L91.8284 42.0447V25.3307H97.2645V45.6147H90.2057L78.495 28.9277L80.1989 28.5761V45.6147H74.7627V25.3307H82.0109L93.5593 41.6932ZM119.839 41.6932L118.108 42.0447V25.3307H123.544V45.6147H116.485L104.775 28.9277L106.478 28.5761V45.6147H101.042V25.3307H108.29L119.839 41.6932ZM144.658 33.4443V37.5011H129.81V33.4443H144.658ZM133.623 35.4727L132.298 43.6134L130.026 41.0711H145.55V45.6147H126.7L128.241 35.4727L126.7 25.3307H145.415V29.8743H130.026L132.298 27.332L133.623 35.4727ZM152.662 34.2016H160.045C160.947 34.2016 161.65 33.9942 162.155 33.5795C162.66 33.1648 162.912 32.5879 162.912 31.8486C162.912 31.0913 162.66 30.5144 162.155 30.1177C161.65 29.703 160.947 29.4957 160.045 29.4957H151.878L154.393 26.8182V45.6147H148.794V25.3307H160.83C162.38 25.3307 163.732 25.6101 164.886 26.1691C166.04 26.71 166.942 27.4672 167.591 28.4409C168.24 29.3965 168.565 30.5324 168.565 31.8486C168.565 33.1288 168.24 34.2557 167.591 35.2293C166.942 36.2029 166.04 36.9602 164.886 37.5011C163.732 38.042 162.38 38.3125 160.83 38.3125H152.662V34.2016ZM155.691 36.1218H161.993L169.268 45.6147H162.777L155.691 36.1218Z" fill="url(#paint1_radial_7131_906)"/>
<defs>
<linearGradient id="paint0_linear_7131_906" x1="47.9556" y1="-6.51859" x2="75.1927" y2="80.3089" gradientUnits="userSpaceOnUse">
<stop stop-color="#666666"/>
<stop offset="1" stop-color="#CCCCCC"/>
</linearGradient>
<radialGradient id="paint1_radial_7131_906" cx="0" cy="0" r="1" gradientUnits="userSpaceOnUse" gradientTransform="translate(16.5 105.615) rotate(-76.0594) scale(145.279 178.152)">
<stop stop-color="#CCCCCC"/>
<stop offset="0.472868" stop-color="#E6CEFF"/>
<stop offset="1" stop-color="#222531"/>
</radialGradient>
</defs>
</svg>
